<svg xmlns="http://www.w3.org/2000/svg" width="30.489" height="33" viewBox="0 0 30.489 33">
  <path id="Path_181" data-name="Path 181" d="M20.288,17.387a1.568,1.568,0,1,1-1.566-1.653A1.611,1.611,0,0,1,20.288,17.387Zm6.354-1.653a1.656,1.656,0,1,0,1.565,1.653A1.611,1.611,0,0,0,26.642,15.734Zm6.687,6.73v-.188a15.023,15.023,0,0,1-.627,1.58,10.292,10.292,0,0,0,.256,1.243,7.809,7.809,0,0,0,3.7,2.734,4.043,4.043,0,0,1-2.266.3,6.782,6.782,0,0,0,3.168,2.343c-3.348,3.187-8.864,3.257-12.72.783a6.783,6.783,0,0,1-4.324,0c-3.856,2.475-9.372,2.4-12.72-.783a6.782,6.782,0,0,0,3.208-2.4,4.083,4.083,0,0,1-1.817-.341,8.005,8.005,0,0,0,2.97-1.856,10.3,10.3,0,0,0,.5-2.02,15.007,15.007,0,0,1-.627-1.58v.188H10.143a2.784,2.784,0,0,1-2.7-2.856V16.466a2.882,2.882,0,0,1,1.418-2.513C8.884,9.492,10.115,6.009,12.52,3.6,14.906,1.211,18.325,0,22.683,0S30.46,1.211,32.845,3.6c2.4,2.408,3.636,5.892,3.664,10.353a2.882,2.882,0,0,1,1.418,2.513v3.142a2.783,2.783,0,0,1-2.7,2.856H33.329ZM32.2,17.4c0-.735-.036-1.425-.088-2.095a10.971,10.971,0,0,0-6.267-2.382,3.621,3.621,0,0,1,1.035,1.792c-1.637-1.263-5.067-1.655-6.206-3.008h0c-1.814-1.268-2.29-3.084-2.3-2.332-.073,3.6-2.493,6.415-5.179,6.811-.017.4-.031.8-.031,1.214a13.594,13.594,0,0,0,.636,4.163c1.509,1.922,4,2.465,6.207,2.609A2.768,2.768,0,0,1,22.4,23c1.451,0,2.626.881,2.626,1.969S23.854,26.94,22.4,26.94a2.718,2.718,0,0,1-2.447-1.258,12.357,12.357,0,0,1-4.747-1.125c2.124,3.306,5.417,5.055,7.473,5.055C25.914,29.611,32.2,25.3,32.2,17.4Zm1.637-3.788h1.041c-.172-7.784-4.379-11.9-12.2-11.9s-12.026,4.112-12.2,11.9h1.041a14.157,14.157,0,0,1,2.405-6.44c1.946-2.644,4.89-3.984,8.752-3.984s6.807,1.34,8.752,3.984A14.157,14.157,0,0,1,33.84,13.609Z" transform="translate(-7.438 0)" fill="#fff"/>
</svg>
