<svg id="clock" xmlns="http://www.w3.org/2000/svg" width="158.283" height="158.283" viewBox="0 0 158.283 158.283">
  <path id="Path_6" data-name="Path 6" d="M68.225,130.993a62.767,62.767,0,1,1,62.767-62.767c0,1.539-.084,3.127-.208,4.729a46.249,46.249,0,0,1,5.3,1.987c.217-2.232.368-4.476.368-6.716a68.225,68.225,0,1,0-68.225,68.225c2.24,0,4.484-.151,6.716-.368a46.25,46.25,0,0,1-1.987-5.3c-1.6.124-3.19.208-4.729.208Zm0,0" transform="translate(0 0)" fill="#3e9cee"/>
  <path id="Path_7" data-name="Path 7" d="M369.54,316.483v-22.53l-15.77,22.53Zm0,0" transform="translate(-233.089 -193.678)" fill="#3e9cee"/>
  <path id="Path_8" data-name="Path 8" d="M138.7,92.306a46.3,46.3,0,0,1,8.07.75c.073-1.179.117-2.344.117-3.479a57.02,57.02,0,0,0-14.966-38.482L124.312,58.7l-3.859-3.859,7.609-7.609a57,57,0,0,0-35.756-14.83V43.183H86.848V32.406a56.99,56.99,0,0,0-35.753,14.83L58.7,54.844,54.845,58.7l-7.609-7.609a57,57,0,0,0-14.83,35.753H43.184v5.458H32.406a56.99,56.99,0,0,0,14.83,35.753l7.609-7.609,3.859,3.859-7.609,7.609a57,57,0,0,0,38.482,14.968c1.135,0,2.3-.044,3.479-.117A46.171,46.171,0,0,1,138.7,92.306Zm-46.393-1.6L77.861,105.151,74,101.292,86.848,88.447V59.558h5.458Zm0,0" transform="translate(-21.352 -21.351)" fill="#3e9cee"/>
  <path id="Path_9" data-name="Path 9" d="M264.935,224a40.935,40.935,0,1,0,40.935,40.935A40.982,40.982,0,0,0,264.935,224Zm-8.187,29.673a10.93,10.93,0,0,1-2.7,7.188l-15.507,17.72h18.205v5.458H232.187v-6.484l17.752-20.288a5.452,5.452,0,0,0,1.351-3.594V251.29a5.458,5.458,0,0,0-10.916,0v5.458h-5.458V251.29a10.916,10.916,0,0,1,21.832,0ZM289.5,275.851v8.187h-5.458v-8.187H262.206v-6.317l20.41-29.16h6.88v30.019h5.458v5.458Zm0,0" transform="translate(-147.588 -147.588)" fill="#3e9cee"/>
</svg>
