<svg xmlns="http://www.w3.org/2000/svg" width="77.302" height="99.003" viewBox="0 0 77.302 99.003">
  <g id="doctor_1_" data-name="doctor (1)" transform="translate(-56.114)">
    <g id="Group_200" data-name="Group 200" transform="translate(84.015 31.001)">
      <g id="Group_199" data-name="Group 199" transform="translate(0)">
        <path id="Path_172" data-name="Path 172" d="M201.856,160.322a1.45,1.45,0,0,0-1.45,1.45v1.55a1.45,1.45,0,1,0,2.9,0v-1.55A1.45,1.45,0,0,0,201.856,160.322Z" transform="translate(-200.406 -160.322)" fill="#3e9cee"/>
      </g>
    </g>
    <g id="Group_202" data-name="Group 202" transform="translate(102.615 31.001)">
      <g id="Group_201" data-name="Group 201" transform="translate(0)">
        <path id="Path_173" data-name="Path 173" d="M298.048,160.322a1.45,1.45,0,0,0-1.45,1.45v1.55a1.45,1.45,0,1,0,2.9,0v-1.55A1.45,1.45,0,0,0,298.048,160.322Z" transform="translate(-296.598 -160.322)" fill="#3e9cee"/>
      </g>
    </g>
    <g id="Group_204" data-name="Group 204" transform="translate(88.665 41.851)">
      <g id="Group_203" data-name="Group 203">
        <path id="Path_174" data-name="Path 174" d="M236.237,216.867a1.45,1.45,0,0,0-2.051-.014,6.392,6.392,0,0,1-7.263,0,1.45,1.45,0,1,0-2.037,2.065,9.148,9.148,0,0,0,11.337,0A1.45,1.45,0,0,0,236.237,216.867Z" transform="translate(-224.454 -216.435)" fill="#3e9cee"/>
      </g>
    </g>
    <g id="Group_206" data-name="Group 206" transform="translate(82.465 26.35)">
      <g id="Group_205" data-name="Group 205">
        <path id="Path_175" data-name="Path 175" d="M196.94,136.274h-3.1a1.45,1.45,0,0,0,0,2.9h3.1a1.45,1.45,0,1,0,0-2.9Z" transform="translate(-192.39 -136.274)" fill="#3e9cee"/>
      </g>
    </g>
    <g id="Group_208" data-name="Group 208" transform="translate(101.065 26.35)">
      <g id="Group_207" data-name="Group 207" transform="translate(0)">
        <path id="Path_176" data-name="Path 176" d="M293.132,136.274h-3.1a1.45,1.45,0,0,0,0,2.9h3.1a1.45,1.45,0,0,0,0-2.9Z" transform="translate(-288.582 -136.274)" fill="#3e9cee"/>
      </g>
    </g>
    <g id="Group_210" data-name="Group 210" transform="translate(56.114)">
      <g id="Group_209" data-name="Group 209" transform="translate(0)">
        <path id="Path_177" data-name="Path 177" d="M125.825,69.077l-10.453-3.214a3.325,3.325,0,0,0-1.842-3.176l-6.465-3.232V54.846A21.633,21.633,0,0,0,116.157,40.1h.862a5.5,5.5,0,0,0,5.519-4.782,5.317,5.317,0,0,0-3.073-5.379V13.85A10.763,10.763,0,0,0,108.715,3.1h-.245A18.283,18.283,0,0,0,97.768,0C88.709,0,84.548,1.887,79.729,4.072A62.9,62.9,0,0,1,70.72,7.55,1.45,1.45,0,0,0,69.789,9.5a13.158,13.158,0,0,0,2.364,3.437c-.722.889-2.088,3.161-2.088,7.629v9.438A5.29,5.29,0,0,0,72.29,40.1h1.082a21.626,21.626,0,0,0,9.092,14.747v4.607L76,62.687a3.326,3.326,0,0,0-1.842,3.176L63.705,69.077a10.7,10.7,0,0,0-7.591,10.276v18.2a1.45,1.45,0,0,0,2.9,0v-18.2a7.81,7.81,0,0,1,5.543-7.5l10.873-3.343,1.919,2.559-2.18,2.181a4.544,4.544,0,0,0-.853,5.253l4.152,8.3H74.515v-1.65a1.45,1.45,0,1,0-2.9,0V86.8h-6.3a1.45,1.45,0,0,0-1.45,1.45v9.3A1.45,1.45,0,0,0,65.315,99h15.5a1.45,1.45,0,0,0,1.45-1.45V94.4l1.9,3.806a1.45,1.45,0,0,0,2.594-1.3L76.911,77.2a1.648,1.648,0,0,1,.309-1.9l3.07-3.07a1.45,1.45,0,0,0,.135-1.9L77.14,65.951a.448.448,0,0,1,.158-.669l5.712-2.856,4.032,13.825a1.45,1.45,0,1,0,2.784-.812l-.636-2.179a16.969,16.969,0,0,0,11.149,0L94.765,92.373l-3.13-10.731a1.45,1.45,0,1,0-2.784.812l4.522,15.5a1.45,1.45,0,0,0,2.784,0l10.364-35.533,5.712,2.856a.448.448,0,0,1,.158.669l-3.286,4.381a1.451,1.451,0,0,0,.135,1.9l3.07,3.07a1.648,1.648,0,0,1,.309,1.9l-9.852,19.7a1.45,1.45,0,1,0,2.594,1.3l9.851-19.7a4.545,4.545,0,0,0-.852-5.253l-2.181-2.181,1.919-2.559,10.873,3.343a7.81,7.81,0,0,1,5.543,7.5v18.2a1.45,1.45,0,1,0,2.9,0v-18.2A10.7,10.7,0,0,0,125.825,69.077ZM79.364,96.1h-12.6V89.7h4.85v.1a1.45,1.45,0,1,0,2.9,0v-.1h4.85ZM80.927,6.714c4.7-2.131,8.41-3.814,16.842-3.814,5.35,0,10.132,2.239,11.121,5.209a1.45,1.45,0,0,0,2.752-.917,6.838,6.838,0,0,0-.3-.737,7.863,7.863,0,0,1,5.22,7.4v15.6h-1.65a1.652,1.652,0,0,1-1.65-1.65v-1.55c0-6.723-4.868-11.668-5.075-11.876a1.452,1.452,0,0,0-1.462-.358c-8.051,2.542-19.4,4.685-27.758.457a15.6,15.6,0,0,1-5.653-4.694A71.328,71.328,0,0,0,80.927,6.714Zm23.238,53.43-2.77,9.5a14.07,14.07,0,0,1-13.26,0l-2.77-9.5v-3.6a21.569,21.569,0,0,0,18.8,0Zm-9.4-4.343a18.721,18.721,0,0,1-18.7-18.7,1.45,1.45,0,1,0-2.9,0v.1H72.29a2.425,2.425,0,0,1-2.412-2.68,2.573,2.573,0,0,1,2.633-2.17h2.1a4.555,4.555,0,0,0,4.55-4.55V22.327a1.45,1.45,0,1,0-2.9,0V27.8a1.652,1.652,0,0,1-1.65,1.65h-1.65V20.567c0-3.374.907-5.052,1.326-5.647a19.934,19.934,0,0,0,3.141,2.025,27.073,27.073,0,0,0,11.626,2.819,54.887,54.887,0,0,0,17.643-2.7c1.151,1.394,3.664,4.926,3.664,9.188V27.8a4.555,4.555,0,0,0,4.55,4.55h2.325a2.425,2.425,0,0,1,2.412,2.68,2.573,2.573,0,0,1-2.633,2.17h-.654v-.085a1.45,1.45,0,0,0-1.45-1.45h0a1.45,1.45,0,0,0-1.45,1.449A18.724,18.724,0,0,1,94.765,55.8Z" transform="translate(-56.114)" fill="#3e9cee"/>
      </g>
    </g>
    <g id="Group_212" data-name="Group 212" transform="translate(115.015 83.702)">
      <g id="Group_211" data-name="Group 211" transform="translate(0)">
        <path id="Path_178" data-name="Path 178" d="M369.928,436.746H367.5v-2.425a1.45,1.45,0,1,0-2.9,0v2.425h-2.425a1.45,1.45,0,0,0,0,2.9H364.6v2.425a1.45,1.45,0,1,0,2.9,0v-2.425h2.425a1.45,1.45,0,0,0,0-2.9Z" transform="translate(-360.728 -432.871)" fill="#3e9cee"/>
      </g>
    </g>
  </g>
</svg>
