<svg xmlns="http://www.w3.org/2000/svg" width="381.712" height="381.669" viewBox="0 0 381.712 381.669">
  <g id="puppy" transform="translate(-0.001 0)">
    <path id="Path_59" data-name="Path 59" d="M232,103.945h12.313v12.313H232Zm0,0" transform="translate(-53.457 -23.951)" fill="#3e9cee"/>
    <path id="Path_60" data-name="Path 60" d="M104,103.945h12.313v12.313H104Zm0,0" transform="translate(-23.964 -23.951)" fill="#3e9cee"/>
    <path id="Path_61" data-name="Path 61" d="M369.159,318.411c-1.163-6.2-8.883-10.074-25.961-13.077-26.758-4.7-68.6-4.7-95.356,0a98.122,98.122,0,0,0-13.889,3.331V261.522A131.194,131.194,0,0,0,199.6,172.837a55.073,55.073,0,0,0,9.7-29.548,134.843,134.843,0,0,0,13.242-31.547,14.955,14.955,0,0,0,11.3,5.192A15.15,15.15,0,0,0,248.04,107l21.614-59.453a20.587,20.587,0,0,0-11.7-26.148L209.086,1.855a26.73,26.73,0,0,0-28.523,5.853L169.8,18.476l-68.739-.048L90.33,7.7A26.741,26.741,0,0,0,61.808,1.849L12.948,21.4A20.591,20.591,0,0,0,1.239,47.549L22.86,107a15.14,15.14,0,0,0,14.186,9.932,14.965,14.965,0,0,0,11.3-5.192A134.845,134.845,0,0,0,61.591,143.29a55.072,55.072,0,0,0,9.7,29.548,131.2,131.2,0,0,0-34.349,88.685V324.8a16.036,16.036,0,0,1-8.907,14.415,28.286,28.286,0,0,0-15.719,25.432v4.7A12.325,12.325,0,0,0,24.627,381.67H92.35a18.494,18.494,0,0,0,18.47-18.47v-6.157h49.253V363.2a18.494,18.494,0,0,0,18.47,18.47H381.712V363.2Zm-73.639-4.464c25.679,0,47.374,3.132,57.2,6.157-9.821,3.021-31.517,6.157-57.2,6.157s-47.374-3.135-57.2-6.157C248.145,317.079,269.841,313.947,295.519,313.947Zm-73.88,5.294-1.614,5.64a24.484,24.484,0,0,1,1.614-47ZM129.29,145.168l-5.411-5.411a2.551,2.551,0,0,1,1.8-4.353h19.528a2.551,2.551,0,0,1,1.8,4.353l-5.411,5.411A9.019,9.019,0,0,1,129.29,145.168Zm17.114,51.8-2.27,11.345a8.863,8.863,0,0,1-17.382,0l-2.264-11.345Zm13.669-24.627v3.078a9.235,9.235,0,1,1-18.47,0V159.015a20.834,20.834,0,0,0,8.706-5.141l5.411-5.411a14.863,14.863,0,0,0-10.51-25.372H125.683a14.863,14.863,0,0,0-10.51,25.372l5.411,5.411a20.834,20.834,0,0,0,8.706,5.141v16.408a9.235,9.235,0,1,1-18.47,0v-3.078H98.507v3.078a21.267,21.267,0,0,0,.764,5.387,43.13,43.13,0,0,1-25.237-36.188A130.267,130.267,0,0,0,129.29,38.031V30.747H141.6v7.278a130.251,130.251,0,0,0,55.256,106.59A43.13,43.13,0,0,1,171.623,180.8a21.181,21.181,0,0,0,.764-5.381v-3.078Zm29.2-155.936a14.261,14.261,0,0,1,15.241-3.126l48.871,19.546a8.238,8.238,0,0,1,5.2,7.684,8.147,8.147,0,0,1-.5,2.826l-21.614,59.45a2.9,2.9,0,0,1-5.2.084l-7.738-19.345a156,156,0,0,0-42.032-59.342ZM212.092,88.1l1.981,4.951a122.585,122.585,0,0,1-13.035,39.438,118.019,118.019,0,0,1-47.122-94.46V30.748h16.215A143.6,143.6,0,0,1,212.092,88.1ZM34.428,102.793,12.813,43.343a8.277,8.277,0,0,1,4.7-10.516L66.383,13.282a14.149,14.149,0,0,1,15.247,3.126L89.4,24.179A156.026,156.026,0,0,0,47.369,83.521l-7.732,19.345a2.906,2.906,0,0,1-5.21-.072Zm22.393-9.74L58.8,88.1a143.588,143.588,0,0,1,41.972-57.361h16.2v7.284a118.018,118.018,0,0,1-47.122,94.46A122.5,122.5,0,0,1,56.821,93.053Zm7.362,110.54a36.9,36.9,0,0,1-14.929,66.7v-8.766a119.293,119.293,0,0,1,14.929-57.935ZM110.82,344.731v-55.41a24.627,24.627,0,0,1,49.253,0v55.41Zm61.566,18.47v-73.88a36.94,36.94,0,1,0-73.88,0V363.2a6.169,6.169,0,0,1-6.157,6.157H24.627v-4.7a16.029,16.029,0,0,1,8.907-14.412,28.287,28.287,0,0,0,15.719-25.435V282.731a49.237,49.237,0,0,0,21.479-89.614,121,121,0,0,1,8.67-10.933,55.162,55.162,0,0,0,32.47,14.529l2.8,14.012a21.181,21.181,0,0,0,41.539.006l2.8-14.012a55.162,55.162,0,0,0,32.47-14.529,119.006,119.006,0,0,1,30.155,79.333v3.725a36.91,36.91,0,0,0-5.023,71.583l-7.049,24.678-.135,7.849H178.544a6.169,6.169,0,0,1-6.157-6.157ZM369.4,369.357H221.64v-5.294L231.2,330.59a85.627,85.627,0,0,0,16.633,4.284,309.024,309.024,0,0,0,95.362,0,85.508,85.508,0,0,0,16.633-4.284l9.569,33.474Zm0,0" transform="translate(0 0)" fill="#3e9cee"/>
    <path id="Path_62" data-name="Path 62" d="M376,455.945h12.313v12.313H376Zm0,0" transform="translate(-86.638 -105.059)" fill="#3e9cee"/>
    <path id="Path_63" data-name="Path 63" d="M344,455.945h12.313v12.313H344Zm0,0" transform="translate(-79.264 -105.059)" fill="#3e9cee"/>
    <path id="Path_64" data-name="Path 64" d="M408,455.945h12.313v12.313H408Zm0,0" transform="translate(-94.011 -105.059)" fill="#3e9cee"/>
    <path id="Path_65" data-name="Path 65" d="M320,234.3a19.216,19.216,0,0,0,32.8,13.588l6.686-6.686h31.841l6.686,6.686a19.219,19.219,0,0,0,28.938-25.156,19.218,19.218,0,0,0-28.937-25.156l-6.686,6.686H359.489l-6.686-6.686a19.219,19.219,0,0,0-28.938,25.156A19.076,19.076,0,0,0,320,234.3Zm14.333-18.254a6.9,6.9,0,0,1,9.764-9.764l10.293,10.293h42.038l10.293-10.293a6.9,6.9,0,0,1,9.764,9.764l-6.686,6.686,6.686,6.686a6.9,6.9,0,0,1-9.764,9.764l-10.293-10.293H354.391L344.1,239.179a6.9,6.9,0,0,1-9.764-9.764l6.686-6.686Zm0,0" transform="translate(-73.734 -44.228)" fill="#3e9cee"/>
    <path id="Path_66" data-name="Path 66" d="M288,207.981a80.161,80.161,0,0,0,49.253,73.811V320.2l36.54-32.476A79.994,79.994,0,1,0,288,207.982Zm80.036-67.723a67.675,67.675,0,0,1,2.991,135.287l-2.185.1-19.276,17.135V273.215l-4.1-1.452a67.682,67.682,0,0,1,22.57-131.505Zm0,0" transform="translate(-66.361 -29.481)" fill="#3e9cee"/>
  </g>
</svg>
