<svg xmlns="http://www.w3.org/2000/svg" width="290.383" height="381.669" viewBox="0 0 290.383 381.669">
  <g id="laboratory-microscope" transform="translate(-45.643 0)">
    <path id="Path_58" data-name="Path 58" d="M310.237,337.919h-21.16L283.089,164.4c-.04-33.845-15.758-44.933-21.68-49.111-.27-.19-23.414-15.993-23.414-15.993l4.646-7.9a7.5,7.5,0,0,0-2.662-10.268l-4.429-2.605L247.03,59l6.673,3.925a7.5,7.5,0,0,0,10.268-2.663l11.065-18.814a7.5,7.5,0,0,0-2.662-10.267L221.128,1.036A7.5,7.5,0,0,0,210.86,3.7L199.794,22.513a7.5,7.5,0,0,0,2.662,10.267l6.672,3.924-11.481,19.52-4.429-2.606A7.5,7.5,0,0,0,182.95,56.28L110.53,179.407a7.5,7.5,0,0,0,2.662,10.268l8.074,4.749-13.872,23.585a7.5,7.5,0,0,0,2.663,10.268l17.685,10.4a7.5,7.5,0,0,0,10.267-2.662l13.871-23.584,8.073,4.748a7.5,7.5,0,0,0,10.268-2.662l11.214-19.064,18.146,10.674a20.371,20.371,0,0,1,7.231,27.886l-32.244,54.823L161.9,281.385l1.851-3.146a7.5,7.5,0,0,0-2.662-10.268l-92.84-54.6a7.5,7.5,0,0,0-10.268,2.663l-11.3,19.221a7.5,7.5,0,0,0,2.663,10.267l14.065,8.273-6.793,11.549a7.5,7.5,0,0,0,2.662,10.268l51.776,30.453A7.5,7.5,0,0,0,121.32,303.4l6.793-11.55,7.619,4.48-24.479,41.592H74.292A25.818,25.818,0,0,0,48.5,363.708v10.461a7.5,7.5,0,0,0,7.5,7.5H328.526a7.5,7.5,0,0,0,7.5-7.5V363.708A25.818,25.818,0,0,0,310.237,337.919Zm-90.25-320.15L258.3,40.306l-3.461,5.885L216.526,23.655Zm2.071,26.541L234.1,51.394l-11.48,19.519-.392-.23-11.652-6.854ZM128.883,221.945l-4.755-2.8L134.2,202.029l4.755,2.8Zm51.5-54.3-19.292,32.8-33.832-19.9,64.815-110.2,33.832,19.9-14.175,24.1a31.87,31.87,0,0,0-31.348,53.3Zm7.8-31.284a16.887,16.887,0,1,1,5.994,23.108A16.967,16.967,0,0,1,188.191,136.363Zm-76,152.965L73.345,266.479l2.99-5.085,38.848,22.849ZM63.41,236.389l3.7-6.29,79.91,47-3.7,6.29ZM154.3,294.314l19.132,11.253a7.5,7.5,0,0,0,10.268-2.661l36.047-61.288a35.37,35.37,0,0,0-12.556-48.42l-18.146-10.675,4.223-7.179a31.867,31.867,0,0,0,31.467-53.5l5.645-9.6s22.087,15.079,22.388,15.292c4.586,3.235,15.327,10.814,15.327,36.986,0,.087,0,.173.005.259l5.976,173.134H128.653Zm166.73,72.355H63.5v-2.961a10.8,10.8,0,0,1,10.789-10.789H310.237a10.8,10.8,0,0,1,10.789,10.789Z" fill="#3e9cee"/>
  </g>
</svg>
