<svg xmlns="http://www.w3.org/2000/svg" width="169.296" height="221.35" viewBox="0 0 169.296 221.35">
  <g id="location-pin" transform="translate(-43.352 -19)">
    <g id="Group_121" data-name="Group 121">
      <g id="Group_114" data-name="Group 114">
        <g id="Group_112" data-name="Group 112">
          <ellipse id="Ellipse_4" data-name="Ellipse 4" cx="71.653" cy="13.142" rx="71.653" ry="13.142" transform="translate(56.347 211.566)" fill="#3e9cee"/>
        </g>
        <g id="Group_113" data-name="Group 113">
          <path id="Path_111" data-name="Path 111" d="M128,240.35c-19.286,0-37.439-1.382-51.117-3.89-20.648-3.787-23.036-8.521-23.036-11.752s2.388-7.965,23.036-11.752c13.678-2.508,31.831-3.89,51.117-3.89s37.439,1.382,51.117,3.89c20.648,3.787,23.036,8.52,23.036,11.752s-2.388,7.965-23.036,11.752C165.439,238.968,147.286,240.35,128,240.35Zm0-26.284c-18.724,0-36.378,1.319-49.709,3.716-18.218,3.275-19.44,6.894-19.444,6.929s1.227,3.647,19.444,6.923c13.331,2.4,30.985,3.716,49.709,3.716s36.378-1.319,49.709-3.716c17.984-3.233,19.406-6.8,19.443-6.926-.037-.125-1.459-3.692-19.443-6.926C164.378,215.386,146.724,214.066,128,214.066Z" fill="#3e9cee"/>
        </g>
      </g>
      <g id="Group_120" data-name="Group 120">
        <g id="Group_115" data-name="Group 115">
          <path id="Path_112" data-name="Path 112" d="M128,21.5a82.148,82.148,0,0,0-82.148,82.148C45.852,170.1,128,224.708,128,224.708s82.148-54.611,82.148-121.06A82.148,82.148,0,0,0,128,21.5Zm0,132.574a50.426,50.426,0,1,1,50.426-50.426A50.425,50.425,0,0,1,128,154.074Z" fill="#3e9cee"/>
        </g>
        <g id="Group_118" data-name="Group 118">
          <g id="Group_116" data-name="Group 116">
            <path id="Path_113" data-name="Path 113" d="M128,201.75l-1.386-.921s-.755-.5-2.112-1.466l2.895-4.076.6.425c.184-.129.385-.27.6-.425l2.9,4.076c-1.357.964-2.112,1.466-2.112,1.466Z" fill="#3e9cee"/>
          </g>
          <g id="Group_117" data-name="Group 117">
            <path id="Path_114" data-name="Path 114" d="M119.568,195.729c-1.223-.932-2.576-1.982-4.039-3.148l3.115-3.91c1.432,1.141,2.758,2.17,3.953,3.081Zm16.876-.012-3.027-3.979c1.2-.91,2.52-1.938,3.95-3.079l3.117,3.91C139.021,193.735,137.667,194.787,136.444,195.717Zm-25.665-7.025q-1.876-1.573-3.886-3.33l3.293-3.762q1.965,1.718,3.806,3.262Zm34.455-.009-3.213-3.83q1.838-1.54,3.8-3.262l3.293,3.762Q147.114,187.108,145.234,188.683Zm-42.912-7.423q-1.832-1.69-3.723-3.506l3.465-3.6q1.848,1.777,3.648,3.434Zm51.364-.009-3.387-3.678q1.8-1.656,3.646-3.433l3.467,3.6Q155.523,179.559,153.686,181.251Zm-59.457-7.815q-1.77-1.8-3.551-3.689l3.645-3.424q1.737,1.848,3.469,3.6Zm67.551-.008-3.563-3.51q1.728-1.754,3.469-3.6l3.645,3.422Q163.552,171.632,161.78,173.428ZM86.536,165.2c-1.137-1.285-2.263-2.592-3.347-3.884l3.83-3.213q1.62,1.929,3.261,3.784Zm82.937-.009-3.744-3.313c1.113-1.259,2.21-2.532,3.259-3.784l3.832,3.212C171.741,162.6,170.616,163.9,169.473,165.194Zm-90.161-8.659c-1.063-1.359-2.106-2.736-3.1-4.093l4.031-2.959c.966,1.316,1.979,2.652,3.011,3.972Zm97.382-.009-3.939-3.08c1.032-1.319,2.045-2.655,3.011-3.972l4.031,2.959C178.8,153.79,177.757,155.167,176.694,156.526ZM72.654,147.4c-.973-1.44-1.918-2.9-2.81-4.326l4.242-2.646c.86,1.379,1.773,2.784,2.713,4.176Zm110.7-.006-4.145-2.8c.936-1.387,1.847-2.786,2.7-4.16l4.242,2.646C185.263,144.5,184.32,145.953,183.351,147.39Zm5.955-9.628-4.359-2.449c.814-1.449,1.6-2.919,2.335-4.366l4.459,2.264C190.973,134.72,190.154,136.251,189.306,137.762Zm-122.621-.015c-.856-1.527-1.676-3.061-2.435-4.556l4.459-2.262c.728,1.433,1.514,2.9,2.337,4.37ZM194.4,127.6l-4.574-2.018c.667-1.513,1.3-3.048,1.877-4.562l4.67,1.785C195.765,124.4,195.1,126.013,194.4,127.6Zm-132.807-.019c-.7-1.6-1.365-3.207-1.97-4.788l4.67-1.785c.575,1.5,1.207,3.038,1.876,4.56ZM198.41,116.925l-4.775-1.48c.487-1.573.931-3.163,1.316-4.725l4.854,1.2C199.4,113.573,198.927,115.259,198.41,116.925Zm-140.825-.012c-.518-1.673-.986-3.358-1.394-5.009l4.856-1.2c.384,1.557.826,3.147,1.315,4.728ZM201.076,105.8l-4.93-.832c.271-1.605.49-3.23.651-4.831l4.975.5C201.6,102.349,201.366,104.085,201.076,105.8Zm-146.158-.02c-.291-1.735-.524-3.477-.695-5.176l4.975-.5c.16,1.591.379,3.222.652,4.85Zm147.225-11.4-5-.086c.007-.382.01-.764.011-1.145,0-1.243-.033-2.5-.1-3.731l4.992-.266c.07,1.319.106,2.666.106,4Q202.151,93.771,202.143,94.378ZM53.856,94.351q-.01-.6-.01-1.2c0-1.334.035-2.692.107-4.035l4.992.267c-.067,1.253-.1,2.52-.1,3.766,0,.372,0,.741.01,1.109ZM196.5,83.59c-.223-1.61-.505-3.227-.839-4.8l4.893-1.035c.357,1.693.66,3.427.9,5.153Zm-136.99-.027-4.953-.689c.239-1.721.543-3.454.9-5.151l4.893,1.035C60.013,80.339,59.729,81.956,59.507,83.563Zm134.7-10.443c-.47-1.551-1-3.105-1.579-4.621l4.672-1.783c.62,1.626,1.189,3.294,1.692,4.957ZM61.8,73.091l-4.785-1.449c.5-1.663,1.073-3.328,1.693-4.95l4.67,1.785C62.8,69.988,62.27,71.541,61.8,73.091Zm128.511-9.968c-.705-1.459-1.472-2.912-2.277-4.318l4.338-2.486c.864,1.508,1.686,3.065,2.441,4.631ZM65.7,63.107l-4.5-2.174c.754-1.562,1.574-3.117,2.439-4.624L67.971,58.8C67.165,60.2,66.4,61.652,65.7,63.107Zm119.212-9.253c-.925-1.337-1.906-2.652-2.917-3.912l3.9-3.129c1.084,1.351,2.137,2.763,3.128,4.2Zm-113.816,0L66.984,51c.992-1.434,2.044-2.843,3.123-4.19l3.9,3.127C73,51.2,72.021,52.512,71.093,53.851Zm107.051-8.32c-1.115-1.174-2.286-2.323-3.482-3.417l3.375-3.689c1.281,1.172,2.537,2.4,3.732,3.663Zm-100.285,0-3.625-3.445c1.2-1.258,2.452-2.49,3.732-3.662l3.375,3.689C80.147,43.205,78.976,44.355,77.859,45.53Zm92.32-7.181c-1.28-.987-2.614-1.943-3.965-2.841l2.768-4.164c1.447.962,2.877,1.986,4.25,3.044Zm-84.357,0-3.053-3.961c1.379-1.063,2.811-2.088,4.255-3.047l2.766,4.166C88.443,36.4,87.108,37.354,85.822,38.347Zm75.387-5.866c-1.42-.779-2.885-1.517-4.354-2.192l2.09-4.543c1.575.726,3.146,1.516,4.668,2.351Zm-66.409,0-2.4-4.385c1.527-.837,3.1-1.629,4.676-2.352l2.088,4.543C97.692,30.956,96.225,31.694,94.8,32.476Zm56.644-4.4c-1.52-.548-3.081-1.048-4.643-1.488l1.355-4.813c1.676.472,3.353,1.01,4.982,1.6Zm-46.865-.009-1.693-4.7c1.637-.589,3.314-1.125,4.983-1.595l1.354,4.813C107.666,27.017,106.1,27.517,104.579,28.065Zm36.529-2.825c-1.6-.306-3.218-.558-4.817-.748l.59-4.965c1.718.2,3.456.475,5.169.8Zm-26.191-.006-.939-4.911c1.708-.326,3.446-.595,5.168-.8l.59,4.965C118.131,24.68,116.51,24.931,114.917,25.234Zm15.537-1.192c-1.616-.056-3.259-.057-4.881,0l-.176-5c1.739-.06,3.5-.06,5.23,0Z" fill="#3e9cee"/>
          </g>
        </g>
        <g id="Group_119" data-name="Group 119">
          <path id="Path_115" data-name="Path 115" d="M128,227.71l-1.384-.92A266.629,266.629,0,0,1,85.1,190.8c-27.312-29.2-41.748-59.341-41.748-87.156a84.648,84.648,0,0,1,169.3,0c0,27.815-14.437,57.953-41.748,87.156a266.562,266.562,0,0,1-41.516,35.986ZM128,24a79.737,79.737,0,0,0-79.647,79.647c0,59.666,68.938,110.49,79.647,118.021,10.71-7.536,79.648-58.391,79.648-118.021A79.737,79.737,0,0,0,128,24Zm0,132.574a52.926,52.926,0,1,1,52.926-52.926A52.986,52.986,0,0,1,128,156.574Zm0-100.852a47.926,47.926,0,1,0,47.926,47.926A47.98,47.98,0,0,0,128,55.722Z" fill="#3e9cee"/>
        </g>
      </g>
    </g>
    <g id="Group_146" data-name="Group 146">
      <g id="Group_145" data-name="Group 145">
        <g id="Group_133" data-name="Group 133">
          <g id="Group_122" data-name="Group 122">
            <path id="Path_116" data-name="Path 116" d="M136.08,136.216l-5.244-1.363a11.26,11.26,0,0,0-5.672,0l-5.244,1.363c-7.572,1.968-14.867-4.178-14.867-12.527h0c0-13.578,10.274-24.586,22.947-24.586h0c12.673,0,22.947,11.007,22.947,24.586h0C150.947,132.038,143.652,138.184,136.08,136.216Z" fill="#3e9cee"/>
          </g>
          <g id="Group_123" data-name="Group 123">
            <path id="Path_117" data-name="Path 117" d="M128,99.1h0c-12.673,0-22.947,11.007-22.947,24.586h0a13.932,13.932,0,0,0,.181,2.249c1.423-12.115,11.073-21.485,22.766-21.485h0c11.693,0,21.343,9.371,22.766,21.485a13.932,13.932,0,0,0,.181-2.249h0C150.947,110.111,140.673,99.1,128,99.1Z" fill="#3e9cee"/>
          </g>
          <g id="Group_132" data-name="Group 132">
            <g id="Group_128" data-name="Group 128">
              <g id="Group_124" data-name="Group 124">
                <path id="Path_118" data-name="Path 118" d="M105.638,90.908c2.957,4.163,3.118,9.323.359,11.527s-7.393.614-10.351-3.549-3.118-9.324-.359-11.527S102.681,86.745,105.638,90.908Z" fill="#3e9cee"/>
              </g>
              <g id="Group_125" data-name="Group 125">
                <path id="Path_119" data-name="Path 119" d="M95.288,91.685c2.759-2.2,7.393-.614,10.35,3.548a12.849,12.849,0,0,1,2.06,4.515c.708-2.534.007-5.931-2.06-8.841-2.957-4.163-7.591-5.751-10.35-3.548-1.8,1.441-2.36,4.147-1.7,7.011A5.125,5.125,0,0,1,95.288,91.685Z" fill="#3e9cee"/>
              </g>
              <g id="Group_126" data-name="Group 126">
                <ellipse id="Ellipse_5" data-name="Ellipse 5" cx="6.98" cy="10.463" rx="6.98" ry="10.463" transform="translate(108.29 74.159) rotate(-12.656)" fill="#3e9cee"/>
              </g>
              <g id="Group_127" data-name="Group 127">
                <path id="Path_120" data-name="Path 120" d="M114.865,77.019c3.715-1.04,7.858,2.662,9.254,8.267q.186.747.295,1.486a14.647,14.647,0,0,0-.295-5.811c-1.4-5.605-5.539-9.307-9.254-8.267-3.385.947-5.247,5.5-4.5,10.546C110.873,80.113,112.5,77.682,114.865,77.019Z" fill="#3e9cee"/>
              </g>
            </g>
            <g id="Group_130" data-name="Group 130">
              <g id="Group_129" data-name="Group 129">
                <ellipse id="Ellipse_6" data-name="Ellipse 6" cx="10.463" cy="6.98" rx="10.463" ry="6.98" transform="translate(129.509 91.526) rotate(-77.344)" fill="#3e9cee"/>
              </g>
            </g>
            <g id="Group_131" data-name="Group 131">
              <path id="Path_121" data-name="Path 121" d="M131.882,85.286c1.4-5.605,5.539-9.306,9.254-8.267,2.369.663,3.992,3.094,4.495,6.221.752-5.042-1.11-9.6-4.495-10.546-3.715-1.04-7.858,2.662-9.254,8.267a14.628,14.628,0,0,0-.295,5.811Q131.7,86.034,131.882,85.286Z" fill="#3e9cee"/>
            </g>
          </g>
        </g>
        <g id="Group_141" data-name="Group 141">
          <g id="Group_134" data-name="Group 134">
            <path id="Path_122" data-name="Path 122" d="M117.07,139.082a13.955,13.955,0,0,1-8.552-2.959,15.548,15.548,0,0,1-5.965-12.434c0-14.936,11.415-27.086,25.446-27.086s25.446,12.15,25.446,27.086a15.548,15.548,0,0,1-5.965,12.434,13.857,13.857,0,0,1-12.03,2.513l-5.244-1.362a8.8,8.8,0,0,0-4.414,0l-5.244,1.362A13.828,13.828,0,0,1,117.07,139.082Zm10.93-7.09a13.81,13.81,0,0,1,3.465.441l5.244,1.362a8.782,8.782,0,0,0,7.714-1.628,10.584,10.584,0,0,0,4.023-8.479c0-12.179-9.172-22.086-20.446-22.086s-20.446,9.907-20.446,22.086a10.588,10.588,0,0,0,4.023,8.479,8.773,8.773,0,0,0,7.714,1.628l5.244-1.362A13.856,13.856,0,0,1,128,131.992Z" fill="#3e9cee"/>
          </g>
          <g id="Group_140" data-name="Group 140">
            <g id="Group_137" data-name="Group 137">
              <g id="Group_135" data-name="Group 135">
                <path id="Path_123" data-name="Path 123" d="M103.03,105.926a8.244,8.244,0,0,1-1.165-.083,12.7,12.7,0,0,1-8.257-5.509c-3.771-5.308-3.718-11.864.12-14.929a7.363,7.363,0,0,1,5.691-1.454,12.7,12.7,0,0,1,8.257,5.509h0c3.769,5.307,3.717,11.864-.12,14.928A7.183,7.183,0,0,1,103.03,105.926ZM98.237,88.867a2.162,2.162,0,0,0-1.39.445c-1.489,1.189-1.513,4.819.837,8.125a7.972,7.972,0,0,0,4.876,3.454,2.382,2.382,0,0,0,1.877-.41c1.489-1.189,1.512-4.818-.837-8.126A7.974,7.974,0,0,0,98.724,88.9,3.591,3.591,0,0,0,98.237,88.867Z" fill="#3e9cee"/>
              </g>
              <g id="Group_136" data-name="Group 136">
                <path id="Path_124" data-name="Path 124" d="M118.63,95.67a8.184,8.184,0,0,1-4.124-1.176c-2.918-1.7-5.261-5.124-6.267-9.165-1.746-7.012.868-13.62,5.951-15.043a7.742,7.742,0,0,1,6.087.906c2.918,1.7,5.261,5.124,6.267,9.165h0c1.746,7.014-.868,13.621-5.951,15.043A7.262,7.262,0,0,1,118.63,95.67Zm-2.485-20.651a2.232,2.232,0,0,0-.606.082c-2.075.581-3.591,4.429-2.447,9.021.676,2.715,2.182,5.033,3.93,6.051a2.851,2.851,0,0,0,2.225.412c2.075-.581,3.591-4.428,2.447-9.02h0c-.676-2.715-2.182-5.033-3.93-6.051A3.252,3.252,0,0,0,116.145,75.019Z" fill="#3e9cee"/>
              </g>
            </g>
            <g id="Group_139" data-name="Group 139">
              <g id="Group_138" data-name="Group 138">
                <path id="Path_125" data-name="Path 125" d="M137.37,95.67a7.262,7.262,0,0,1-1.963-.271c-5.083-1.422-7.7-8.029-5.951-15.043,1.006-4.04,3.349-7.466,6.267-9.164a7.745,7.745,0,0,1,6.087-.906c5.083,1.423,7.7,8.031,5.951,15.043-1.006,4.041-3.349,7.468-6.267,9.165A8.184,8.184,0,0,1,137.37,95.67Zm2.486-20.651a3.238,3.238,0,0,0-1.619.5c-1.748,1.018-3.254,3.336-3.93,6.051h0c-1.144,4.592.372,8.438,2.447,9.02a2.857,2.857,0,0,0,2.225-.412c1.748-1.018,3.254-3.336,3.93-6.051,1.144-4.593-.372-8.44-2.447-9.021A2.195,2.195,0,0,0,139.856,75.019Z" fill="#3e9cee"/>
              </g>
            </g>
          </g>
        </g>
        <g id="Group_142" data-name="Group 142">
          <path id="Path_126" data-name="Path 126" d="M150.362,90.908c-2.957,4.163-3.118,9.323-.359,11.527s7.393.614,10.351-3.549,3.118-9.324.359-11.527S153.319,86.745,150.362,90.908Z" fill="#3e9cee"/>
        </g>
        <g id="Group_143" data-name="Group 143">
          <path id="Path_127" data-name="Path 127" d="M150.362,95.233c2.957-4.163,7.591-5.752,10.35-3.548a5.128,5.128,0,0,1,1.7,2.686c.659-2.864.1-5.57-1.7-7.011-2.759-2.2-7.393-.614-10.35,3.548-2.067,2.91-2.768,6.307-2.06,8.841A12.836,12.836,0,0,1,150.362,95.233Z" fill="#3e9cee"/>
        </g>
        <g id="Group_144" data-name="Group 144">
          <path id="Path_128" data-name="Path 128" d="M152.97,105.926a7.18,7.18,0,0,1-4.526-1.538c-3.837-3.063-3.89-9.62-.12-14.927h0a12.7,12.7,0,0,1,8.257-5.509,7.362,7.362,0,0,1,5.691,1.455c3.838,3.063,3.891,9.62.12,14.928a12.7,12.7,0,0,1-8.257,5.509A8.4,8.4,0,0,1,152.97,105.926ZM152.4,92.355c-2.349,3.308-2.326,6.937-.837,8.125a2.379,2.379,0,0,0,1.877.411,7.972,7.972,0,0,0,4.876-3.454c2.35-3.306,2.326-6.936.837-8.124a2.377,2.377,0,0,0-1.877-.411,7.978,7.978,0,0,0-4.876,3.453Z" fill="#3e9cee"/>
        </g>
      </g>
    </g>
  </g>
</svg>
