<svg xmlns="http://www.w3.org/2000/svg" width="213.603" height="282.256" viewBox="0 0 213.603 282.256">
  <g id="electronic-printed-circuit-with-lines-and-circles" transform="translate(-34.326)">
    <g id="Group_111" data-name="Group 111">
      <path id="Path_110" data-name="Path 110" d="M221.626,223.516a13.265,13.265,0,1,0,0-4.78H152.151V205.728h43.217V200.95H152.151V135.963a4.786,4.786,0,0,0-3.015-4.44l-8.672-3.449,44.272-26.42a4.766,4.766,0,0,0,2.328-4.1V66.821a21.767,21.767,0,1,0-9.558,0V94.147L112.144,66.968a4.782,4.782,0,1,0-3.671,8.832l59.489,24.735L155.6,107.914,90.712,80.932a4.78,4.78,0,1,0-3.671,8.827l58.343,24.26-16.111,9.614L68.77,99.558V58.9a29.665,29.665,0,1,0-9.559,0v43.9a4.789,4.789,0,0,0,3.01,4.441l6.471,2.574v96.529h4.779V111.707l13.014,5.18v89.445h4.779V118.789l13,5.176v82.367h4.779v-80.47L119.7,130.1V187l10,7.384v42.853l12.891,9.525v5.008a15.658,15.658,0,1,0,9.557,0V241.307h43.218v-4.778H152.145V223.517h69.481Zm13.03-10.884a8.489,8.489,0,1,1-8.494,8.489A8.5,8.5,0,0,1,234.656,212.632ZM170.082,45.611a12.214,12.214,0,1,1,12.21,12.213A12.228,12.228,0,0,1,170.082,45.611ZM64,49.749a20.1,20.1,0,1,1,20.1-20.1A20.129,20.129,0,0,1,64,49.749Zm69.894,126.129V135.744l8.7,3.465v43.1ZM153.477,266.6a6.1,6.1,0,1,1-6.1-6.1A6.112,6.112,0,0,1,153.477,266.6Z" fill="#3e9cee"/>
    </g>
  </g>
</svg>
