<svg id="neuter" xmlns="http://www.w3.org/2000/svg" width="214.408" height="174.223" viewBox="0 0 214.408 174.223">
  <g id="Group_173" data-name="Group 173" transform="translate(45.267 8.249)">
    <rect id="Rectangle_47" data-name="Rectangle 47" width="4.996" height="5" transform="translate(86.194)" fill="#3e9cee"/>
    <rect id="Rectangle_48" data-name="Rectangle 48" width="4.996" height="5" transform="translate(31.231)" fill="#3e9cee"/>
    <rect id="Rectangle_49" data-name="Rectangle 49" width="4.997" height="5" transform="translate(97.186)" fill="#3e9cee"/>
    <rect id="Rectangle_50" data-name="Rectangle 50" width="4.997" height="5" transform="translate(75.201)" fill="#3e9cee"/>
    <rect id="Rectangle_51" data-name="Rectangle 51" width="4.997" height="5" transform="translate(64.208)" fill="#3e9cee"/>
    <rect id="Rectangle_52" data-name="Rectangle 52" width="4.996" height="5" transform="translate(108.179)" fill="#3e9cee"/>
    <rect id="Rectangle_53" data-name="Rectangle 53" width="4.996" height="5" transform="translate(53.216)" fill="#3e9cee"/>
    <rect id="Rectangle_54" data-name="Rectangle 54" width="4.997" height="5" transform="translate(42.223)" fill="#3e9cee"/>
    <rect id="Rectangle_55" data-name="Rectangle 55" width="5" height="5" transform="translate(119.171)" fill="#3e9cee"/>
    <rect id="Rectangle_56" data-name="Rectangle 56" width="5" height="4.957" transform="translate(119.171 43.666)" fill="#3e9cee"/>
    <rect id="Rectangle_57" data-name="Rectangle 57" width="5" height="4.957" transform="translate(119.171 32.76)" fill="#3e9cee"/>
    <rect id="Rectangle_58" data-name="Rectangle 58" width="5" height="4.957" transform="translate(119.171 54.572)" fill="#3e9cee"/>
    <rect id="Rectangle_59" data-name="Rectangle 59" width="5" height="4.958" transform="translate(119.171 65.477)" fill="#3e9cee"/>
    <rect id="Rectangle_60" data-name="Rectangle 60" width="5" height="4.957" transform="translate(119.171 21.854)" fill="#3e9cee"/>
    <rect id="Rectangle_61" data-name="Rectangle 61" width="5" height="4.957" transform="translate(119.171 10.948)" fill="#3e9cee"/>
    <rect id="Rectangle_62" data-name="Rectangle 62" width="5" height="4.957" transform="translate(119.171 130.912)" fill="#3e9cee"/>
    <rect id="Rectangle_63" data-name="Rectangle 63" width="5" height="4.958" transform="translate(119.171 120.007)" fill="#3e9cee"/>
    <rect id="Rectangle_64" data-name="Rectangle 64" width="5" height="4.957" transform="translate(119.171 109.101)" fill="#3e9cee"/>
    <rect id="Rectangle_65" data-name="Rectangle 65" width="5" height="4.957" transform="translate(119.171 87.289)" fill="#3e9cee"/>
    <rect id="Rectangle_66" data-name="Rectangle 66" width="5" height="4.958" transform="translate(119.171 76.383)" fill="#3e9cee"/>
    <rect id="Rectangle_67" data-name="Rectangle 67" width="5" height="4.957" transform="translate(119.171 98.195)" fill="#3e9cee"/>
    <rect id="Rectangle_68" data-name="Rectangle 68" width="5" height="4.957" transform="translate(119.171 141.818)" fill="#3e9cee"/>
    <rect id="Rectangle_69" data-name="Rectangle 69" width="5" height="5" transform="translate(119.171 152.724)" fill="#3e9cee"/>
    <rect id="Rectangle_70" data-name="Rectangle 70" width="5.038" height="5" transform="translate(30.499 152.724)" fill="#3e9cee"/>
    <rect id="Rectangle_71" data-name="Rectangle 71" width="5.038" height="5" transform="translate(52.667 152.724)" fill="#3e9cee"/>
    <rect id="Rectangle_72" data-name="Rectangle 72" width="5.039" height="5" transform="translate(41.583 152.724)" fill="#3e9cee"/>
    <rect id="Rectangle_73" data-name="Rectangle 73" width="5.038" height="5" transform="translate(97.003 152.724)" fill="#3e9cee"/>
    <rect id="Rectangle_74" data-name="Rectangle 74" width="5.038" height="5" transform="translate(108.087 152.724)" fill="#3e9cee"/>
    <rect id="Rectangle_75" data-name="Rectangle 75" width="5.038" height="5" transform="translate(63.751 152.724)" fill="#3e9cee"/>
    <rect id="Rectangle_76" data-name="Rectangle 76" width="5.038" height="5" transform="translate(85.919 152.724)" fill="#3e9cee"/>
    <rect id="Rectangle_77" data-name="Rectangle 77" width="5.038" height="5" transform="translate(74.835 152.724)" fill="#3e9cee"/>
    <rect id="Rectangle_78" data-name="Rectangle 78" width="24.485" height="5" transform="translate(0.75)" fill="#3e9cee"/>
    <rect id="Rectangle_79" data-name="Rectangle 79" width="24.453" height="5" transform="translate(0 152.724)" fill="#3e9cee"/>
  </g>
  <g id="Group_191" data-name="Group 191">
    <g id="Group_174" data-name="Group 174" transform="translate(36.931 60.636)">
      <path id="Path_154" data-name="Path 154" d="M128.445,183.823,57.727,113.1l11.58-11.58,82.3,82.3h0A16.377,16.377,0,0,1,128.445,183.823Z" transform="translate(-57.727 -101.525)" fill="#3e9cee"/>
    </g>
    <g id="Group_175" data-name="Group 175" transform="translate(43.588 60.636)">
      <path id="Path_155" data-name="Path 155" d="M151.6,183.823l-82.3-82.3-4.922,4.922,81.2,81.2A16.324,16.324,0,0,0,151.6,183.823Z" transform="translate(-64.384 -101.525)" fill="#3e9cee"/>
    </g>
    <g id="Group_176" data-name="Group 176" transform="translate(33.395 57.098)">
      <path id="Path_156" data-name="Path 156" d="M140.024,191.11a18.818,18.818,0,0,1-13.348-5.52h0L54.191,113.1,69.306,97.987l85.833,85.834-1.768,1.768A18.807,18.807,0,0,1,140.024,191.11Zm-9.812-9.055a13.9,13.9,0,0,0,17.7,1.608l-78.6-78.6L61.262,113.1l68.95,68.951Z" transform="translate(-54.191 -97.987)" fill="#3e9cee"/>
    </g>
    <g id="Group_177" data-name="Group 177" transform="translate(36.931 26.492)">
      <path id="Path_157" data-name="Path 157" d="M128.445,72.177,57.727,142.9l11.58,11.58,82.3-82.3h0A16.377,16.377,0,0,0,128.445,72.177Z" transform="translate(-57.727 -67.381)" fill="#3e9cee"/>
    </g>
    <g id="Group_178" data-name="Group 178" transform="translate(36.931 26.492)">
      <path id="Path_158" data-name="Path 158" d="M150.762,73.02l.843-.843a16.377,16.377,0,0,0-23.16,0L57.727,142.895l4.345,4.345L132.79,76.522A16.381,16.381,0,0,1,150.762,73.02Z" transform="translate(-57.727 -67.381)" fill="#3e9cee"/>
    </g>
    <g id="Group_179" data-name="Group 179" transform="translate(33.396 24.001)">
      <path id="Path_159" data-name="Path 159" d="M69.307,158.011,54.192,142.9l72.485-72.486a18.9,18.9,0,0,1,26.7,0l1.768,1.768ZM61.262,142.9l8.045,8.044,78.6-78.6a13.9,13.9,0,0,0-17.7,1.608Z" transform="translate(-54.192 -64.89)" fill="#3e9cee"/>
    </g>
    <g id="Group_180" data-name="Group 180" transform="translate(2.501 2.486)">
      <path id="Path_160" data-name="Path 160" d="M65.848,50.627h0a24.76,24.76,0,0,0-35.017,0l-.282.282a24.76,24.76,0,0,0,0,35.017L57.727,113.1l8.121-8.121A38.435,38.435,0,0,0,65.848,50.627ZM42.5,74.718A10.013,10.013,0,0,1,56.661,60.557L58.507,62.4a20.028,20.028,0,0,1,0,28.323Z" transform="translate(-23.297 -43.375)" fill="#3e9cee"/>
    </g>
    <g id="Group_183" data-name="Group 183" transform="translate(2.501 2.486)">
      <g id="Group_181" data-name="Group 181" transform="translate(35.21 20.997)">
        <path id="Path_161" data-name="Path 161" d="M63.5,95.721a20.028,20.028,0,0,0,0-28.323l-1.846-1.846a10.038,10.038,0,0,0-1.421-1.181,20.031,20.031,0,0,1-1.729,26.355Z" transform="translate(-58.507 -64.371)" fill="#3e9cee"/>
      </g>
      <g id="Group_182" data-name="Group 182">
        <path id="Path_162" data-name="Path 162" d="M35.544,55.9l.282-.282A24.766,24.766,0,0,1,68.481,53.54a39.038,39.038,0,0,0-2.633-2.913,24.76,24.76,0,0,0-35.017,0l-.282.282a24.76,24.76,0,0,0,0,35.017l5,5A24.759,24.759,0,0,1,35.544,55.9Z" transform="translate(-23.297 -43.375)" fill="#3e9cee"/>
      </g>
    </g>
    <g id="Group_184" data-name="Group 184">
      <path id="Path_163" data-name="Path 163" d="M57.727,116.64,28.781,87.694a27.259,27.259,0,0,1,0-38.552l.278-.279a27.293,27.293,0,0,1,38.556,0h0a40.982,40.982,0,0,1,0,57.892ZM48.339,45.885A22.2,22.2,0,0,0,32.6,52.394l-.278.279a22.261,22.261,0,0,0,0,31.485l25.41,25.41,6.354-6.353a35.977,35.977,0,0,0,0-50.821A22.2,22.2,0,0,0,48.339,45.885ZM58.507,94.261,40.732,76.485a12.513,12.513,0,1,1,17.7-17.7l1.846,1.847a22.525,22.525,0,0,1,0,31.858ZM49.581,60.127A7.511,7.511,0,0,0,44.268,72.95h0L58.383,87.066a17.534,17.534,0,0,0-1.644-22.895l-1.846-1.846A7.484,7.484,0,0,0,49.581,60.127Z" transform="translate(-20.796 -40.889)" fill="#3e9cee"/>
    </g>
    <g id="Group_185" data-name="Group 185" transform="translate(2.5 102.007)">
      <path id="Path_164" data-name="Path 164" d="M65.848,151.017,57.727,142.9,30.549,170.074a24.76,24.76,0,0,0,0,35.017l.282.282a24.76,24.76,0,0,0,35.017,0h0A38.435,38.435,0,0,0,65.848,151.017Zm-7.341,14.258a20.028,20.028,0,0,1,0,28.323l-1.846,1.846A10.013,10.013,0,0,1,42.5,181.283Z" transform="translate(-23.296 -142.896)" fill="#3e9cee"/>
    </g>
    <g id="Group_188" data-name="Group 188" transform="translate(13.123 102.007)">
      <g id="Group_186" data-name="Group 186" transform="translate(18.16)">
        <path id="Path_165" data-name="Path 165" d="M65.848,151.017,57.727,142.9l-5.648,5.648,8.121,8.121a38.442,38.442,0,0,1,2.957,51.041,24.935,24.935,0,0,0,2.691-2.333A38.435,38.435,0,0,0,65.848,151.017Z" transform="translate(-52.079 -142.896)" fill="#3e9cee"/>
      </g>
      <g id="Group_187" data-name="Group 187" transform="translate(0 38.387)">
        <path id="Path_166" data-name="Path 166" d="M36.852,186.93a10.013,10.013,0,0,0,14.161,14.161l1.846-1.846a20.181,20.181,0,0,0,2.056-2.406A10.014,10.014,0,0,1,42.5,181.283Z" transform="translate(-33.919 -181.283)" fill="#3e9cee"/>
      </g>
    </g>
    <g id="Group_189" data-name="Group 189" transform="translate(0.014 98.471)">
      <path id="Path_167" data-name="Path 167" d="M48.339,215.112a27.171,27.171,0,0,1-19.276-7.972l-.282-.282a27.291,27.291,0,0,1,0-38.552L57.727,139.36l9.889,9.889a40.982,40.982,0,0,1,0,57.892A27.18,27.18,0,0,1,48.339,215.112Zm9.388-68.681-25.41,25.41a22.287,22.287,0,0,0,0,31.482l.282.282a22.288,22.288,0,0,0,31.482,0,35.977,35.977,0,0,0,0-50.821ZM49.58,200.87a12.509,12.509,0,0,1-8.848-21.356l17.774-17.775,1.768,1.768a22.525,22.525,0,0,1,0,31.858l-1.846,1.846A12.476,12.476,0,0,1,49.58,200.87Zm8.8-31.935L44.268,183.05a7.514,7.514,0,0,0,10.626,10.627l1.846-1.846a17.534,17.534,0,0,0,1.643-22.9Z" transform="translate(-20.81 -139.36)" fill="#3e9cee"/>
    </g>
    <g id="Group_190" data-name="Group 190" transform="translate(59.482 83.187)">
      <circle id="Ellipse_9" data-name="Ellipse 9" cx="3.924" cy="3.924" r="3.924" fill="#3e9cee"/>
    </g>
  </g>
  <g id="Group_198" data-name="Group 198" transform="translate(119.467 39.641)">
    <g id="Group_195" data-name="Group 195">
      <g id="Group_192" data-name="Group 192" transform="translate(2.501 2.5)">
        <circle id="Ellipse_10" data-name="Ellipse 10" cx="44.97" cy="44.97" r="44.97" fill="#3e9cee"/>
      </g>
      <g id="Group_193" data-name="Group 193" transform="translate(2.501 2.5)">
        <path id="Path_168" data-name="Path 168" d="M187.734,89.35a44.972,44.972,0,0,1,44.86,41.81q.108-1.566.11-3.16a44.97,44.97,0,0,0-89.94,0q0,1.593.11,3.16A44.972,44.972,0,0,1,187.734,89.35Z" transform="translate(-142.764 -83.03)" fill="#3e9cee"/>
      </g>
      <g id="Group_194" data-name="Group 194">
        <path id="Path_169" data-name="Path 169" d="M187.734,175.47A47.47,47.47,0,1,1,235.2,128,47.524,47.524,0,0,1,187.734,175.47Zm0-89.94A42.47,42.47,0,1,0,230.2,128,42.519,42.519,0,0,0,187.734,85.53Z" transform="translate(-140.263 -80.53)" fill="#3e9cee"/>
      </g>
    </g>
    <g id="Group_196" data-name="Group 196" transform="translate(28.26 13.975)">
      <path id="Path_170" data-name="Path 170" d="M192.734,126.588V113.647l7.14,7.14,7.07-7.071L187.734,94.5l-19.211,19.211,7.07,7.071,7.141-7.14v12.941a18.024,18.024,0,1,0,10,0Zm-5,25.343a8.024,8.024,0,1,1,8.024-8.025A8.034,8.034,0,0,1,187.734,151.931Z" transform="translate(-168.523 -94.505)" fill="#fff"/>
    </g>
    <g id="Group_197" data-name="Group 197" transform="translate(24.725 10.439)">
      <path id="Path_171" data-name="Path 171" d="M187.734,164.431a20.525,20.525,0,0,1-7.5-39.63v-5.12l-4.641,4.641-10.6-10.607,22.746-22.746,22.745,22.746-10.606,10.607-4.64-4.64V124.8a20.525,20.525,0,0,1-7.5,39.63Zm-2.5-56.82v20.856l-1.806.522a15.524,15.524,0,1,0,8.61,0l-1.806-.522V107.611l9.64,9.64,3.535-3.536L187.734,98.04l-15.676,15.675,3.535,3.536Zm2.5,46.82a10.524,10.524,0,1,1,10.524-10.525A10.537,10.537,0,0,1,187.734,154.431Zm0-16.049a5.524,5.524,0,1,0,5.524,5.524A5.53,5.53,0,0,0,187.734,138.382Z" transform="translate(-164.988 -90.969)" fill="none"/>
    </g>
  </g>
</svg>
