<svg xmlns="http://www.w3.org/2000/svg" width="505.892" height="512" viewBox="0 0 505.892 512">
  <g id="orthopedics" transform="translate(-3.054)">
    <g id="Group_90" data-name="Group 90">
      <path id="Path_89" data-name="Path 89" d="M466.02,111.946l1.038-1.038a8.248,8.248,0,0,0-11.664-11.665L337.7,216.931a13.686,13.686,0,0,0-1.9,17.055,35.736,35.736,0,0,1-12.615,50.082c-.11.059-.22.12-.327.185A35.734,35.734,0,0,1,270.475,259.9c0-.019-.01-.037-.013-.056s0-.029-.007-.043l-3.173-15.225a8.247,8.247,0,0,0-16.321,1.643,35.791,35.791,0,0,1-11.429-8.83c-10.917-12.651-10.694-34.666.478-47.112a35.674,35.674,0,0,1,45.643-6.442,13.681,13.681,0,0,0,17.056-1.9L421.8,62.846a8.248,8.248,0,0,0-11.664-11.665l-.685.685A252.95,252.95,0,1,0,214.759,502.532v1.22a8.248,8.248,0,0,0,16.5,0v-6.435q.084-.371.137-.756a8.188,8.188,0,0,0-.137-2.909V345.176a13.688,13.688,0,0,0-10.717-13.4,35.74,35.74,0,1,1,27.873-64.518,8.224,8.224,0,0,0,7.169.988A52.148,52.148,0,0,0,305.529,305.2a52.7,52.7,0,0,0,13.092-1.661,35.556,35.556,0,0,1-27.162,28.241,13.684,13.684,0,0,0-10.714,13.4V503.75a8.248,8.248,0,0,0,16.5,0v-1.219A252.99,252.99,0,0,0,466.02,111.946ZM227.735,179.258c-15.688,17.475-16.847,46.552-3.277,65.6a52.237,52.237,0,0,0-9.7,102.477V485.8C102.811,466.1,19.55,367.674,19.55,252.946,19.55,122.566,125.621,16.5,256,16.5A237.084,237.084,0,0,1,397.676,63.64L292.569,168.748A52.131,52.131,0,0,0,227.735,179.258ZM297.241,485.8V347.333a52.025,52.025,0,0,0,38.471-51.706,52.189,52.189,0,0,0,15.181-68.555l103.231-103.23a234.773,234.773,0,0,1,38.327,129.1C492.45,367.639,409.176,466.1,297.241,485.8Z" fill="#3e9cee"/>
    </g>
  </g>
</svg>
