<svg xmlns="http://www.w3.org/2000/svg" width="512.001" height="447.481" viewBox="0 0 512.001 447.481">
  <g id="pawprint" transform="translate(0 0)">
    <path id="Path_90" data-name="Path 90" d="M342.383,239.352a124.666,124.666,0,0,0-209.926,0L76.941,325.958a78.91,78.91,0,0,0,98.191,114.824l1.02-.453a155.123,155.123,0,0,1,123.547.453,78.475,78.475,0,0,0,31.664,6.7,79.476,79.476,0,0,0,17.664-2A78.92,78.92,0,0,0,397.9,325.954Zm26.246,160.973a48.619,48.619,0,0,1-56.848,12.984,185.189,185.189,0,0,0-148.707-.016l-.672.3a48.9,48.9,0,0,1-60.2-71.437l55.52-86.605a94.658,94.658,0,0,1,159.391,0l55.512,86.6a48.623,48.623,0,0,1-4,58.176Zm0,0" fill="#3e9cee"/>
    <path id="Path_91" data-name="Path 91" d="M91.895,239.238c16.516-6.344,29.063-19.652,35.332-37.477,5.961-16.961,5.473-36.109-1.383-53.922s-19.336-32.332-35.129-40.922c-16.6-9.02-34.828-10.488-51.316-4.133C6.226,115.539-9,156.531,5.469,194.183c11.555,29.969,38.5,48.887,65.75,48.887a57.316,57.316,0,0,0,20.676-3.832ZM33.477,183.4c-8.523-22.187-1.035-45.789,16.7-52.609a27.844,27.844,0,0,1,10.047-1.848,33.846,33.846,0,0,1,16.152,4.344c9.539,5.184,17.16,14.184,21.457,25.336s4.676,22.941,1.074,33.18c-3.3,9.383-9.617,16.281-17.781,19.418l-.016.008C63.4,218.058,42.027,205.57,33.476,183.4Zm0,0" fill="#3e9cee"/>
    <path id="Path_92" data-name="Path 92" d="M199.613,171.387c41.469,0,75.207-38.437,75.207-85.684S241.082,0,199.613,0s-75.2,38.445-75.2,85.7S158.148,171.387,199.613,171.387Zm0-141.375c24.918,0,45.2,24.984,45.2,55.691s-20.277,55.672-45.2,55.672S154.426,116.4,154.426,85.7s20.27-55.691,45.188-55.691Zm0,0" fill="#3e9cee"/>
    <path id="Path_93" data-name="Path 93" d="M329.5,192.438h0a61.3,61.3,0,0,0,19.367,3.129c30.242,0,59.715-22.012,70.961-55.84,6.477-19.473,6.051-40.063-1.2-57.973-7.586-18.746-21.645-32.355-39.59-38.324s-37.363-3.477-54.664,7c-16.527,10.012-29.191,26.246-35.656,45.719-13.652,41.078,4.641,84.273,40.777,96.289Zm-12.3-86.824C321.422,92.9,329.492,82.422,339.926,76.1c9.652-5.848,20.184-7.336,29.648-4.191s17,10.641,21.234,21.1c4.574,11.3,4.77,24.531.539,37.246-8.434,25.375-31.934,40.492-52.383,33.7-20.434-6.8-30.2-32.969-21.766-58.344Zm0,0" fill="#3e9cee"/>
    <path id="Path_94" data-name="Path 94" d="M487.875,182.438l-.012-.012c-28.6-21.125-71.367-11.969-95.348,20.422-23.957,32.406-20.211,75.973,8.344,97.113a58.793,58.793,0,0,0,35.313,11.4c21.949,0,44.785-11.2,60.047-31.8,23.957-32.406,20.215-75.973-8.344-97.121ZM472.1,261.7c-14.16,19.113-38.1,25.453-53.379,14.137-15.266-11.3-16.2-36.043-2.074-55.145,9.387-12.68,23.1-19.734,35.734-19.734a29.318,29.318,0,0,1,17.648,5.605c15.254,11.313,16.18,36.047,2.07,55.137Zm0,0" fill="#3e9cee"/>
  </g>
</svg>
