<svg xmlns="http://www.w3.org/2000/svg" xmlns:xlink="http://www.w3.org/1999/xlink" width="64" height="65.161" viewBox="0 0 64 65.161">
  <defs>
    <clipPath id="clip-path">
      <rect width="64" height="65.161" fill="none"/>
    </clipPath>
  </defs>
  <g id="Repeat_Grid_5" data-name="Repeat Grid 5" clip-path="url(#clip-path)">
    <g id="Group_89" data-name="Group 89" transform="translate(-1017.289 134)">
      <g id="taxi" transform="translate(1017.289 -113.286)">
        <g id="Group_62" data-name="Group 62" transform="translate(32.645 16.15)">
          <g id="Group_61" data-name="Group 61">
            <path id="Path_32" data-name="Path 32" d="M341.745,201.593h-1.838a1.042,1.042,0,0,0,0,2.053h1.838a1.042,1.042,0,0,0,0-2.053Z" transform="translate(-339.045 -201.593)" fill="#3e9cee"/>
          </g>
        </g>
        <g id="Group_64" data-name="Group 64" transform="translate(13.085 23.009)">
          <g id="Group_63" data-name="Group 63">
            <path id="Path_33" data-name="Path 33" d="M162.906,266.552a1.686,1.686,0,0,0-1.4-.816H141.8a1.686,1.686,0,0,0-1.4.816,2.428,2.428,0,0,0-.324,1.82l.46,2.19a1.869,1.869,0,0,0,1.728,1.607h18.788a1.869,1.869,0,0,0,1.728-1.607l.46-2.19A2.428,2.428,0,0,0,162.906,266.552Zm-1.348,1.322-.46,2.19a.06.06,0,0,1-.056.052H142.255a.06.06,0,0,1-.056-.052l-.46-2.19a.072.072,0,0,1,.01-.059.05.05,0,0,1,.045-.026H161.5a.049.049,0,0,1,.045.026A.072.072,0,0,1,161.558,267.874Z" transform="translate(-140.014 -265.736)" fill="#3e9cee"/>
          </g>
        </g>
        <g id="Group_66" data-name="Group 66" transform="translate(0 0)">
          <g id="Group_65" data-name="Group 65">
            <path id="Path_34" data-name="Path 34" d="M46.842,73.089a3,3,0,0,0,0-5.952h-.885a2.739,2.739,0,0,0-2.566,2.5l-2.213-6.967A3.553,3.553,0,0,0,37.9,60.046H31.595l-.467-2.673a2.722,2.722,0,0,0-2.549-2.392H20.862a2.723,2.723,0,0,0-2.549,2.392l-.467,2.673H11.537a3.553,3.553,0,0,0-3.274,2.626L6.05,69.639a2.739,2.739,0,0,0-2.566-2.5H2.6a3,3,0,0,0,0,5.952h.885a2.318,2.318,0,0,0,1.14-.3L2.727,75.5a5.493,5.493,0,0,0-.957,3.125V97.465a1.853,1.853,0,0,0,1.714,1.963H6.139a1.853,1.853,0,0,0,1.714-1.963V93.35H41.588v4.115A1.853,1.853,0,0,0,43.3,99.428h2.655a1.853,1.853,0,0,0,1.714-1.963V78.626a5.493,5.493,0,0,0-.957-3.125l-1.9-2.714a2.318,2.318,0,0,0,1.14.3ZM3.484,71.19H2.6a1.086,1.086,0,0,1,0-2.153h.885a1.086,1.086,0,0,1,0,2.153ZM19.94,57.746a.985.985,0,0,1,.922-.865h7.717a.985.985,0,0,1,.922.865l.4,2.3H19.539ZM6.194,97.465a.06.06,0,0,1-.055.063H3.484a.06.06,0,0,1-.055-.063V92.757a3.146,3.146,0,0,0,1.825.593h.94v4.116ZM34.509,91.45H14.932V89.361a.06.06,0,0,1,.055-.063H34.454a.06.06,0,0,1,.055.063V91.45Zm11.5,6.015a.06.06,0,0,1-.055.063H43.3a.06.06,0,0,1-.055-.063V93.35h.94a3.146,3.146,0,0,0,1.825-.593v4.708Zm-.594-20.777a3.409,3.409,0,0,1,.594,1.938V89.361a1.973,1.973,0,0,1-1.825,2.089H36.168V89.361A1.853,1.853,0,0,0,34.454,87.4H14.987a1.853,1.853,0,0,0-1.714,1.963V91.45H5.254a1.973,1.973,0,0,1-1.825-2.089V78.626a3.407,3.407,0,0,1,.594-1.938l2.515-3.6H30.03a.958.958,0,0,0,0-1.9H7.323l2.5-7.869a1.861,1.861,0,0,1,1.715-1.375H37.9a1.861,1.861,0,0,1,1.715,1.375l2.5,7.869h-3.24a.958.958,0,0,0,0,1.9H42.9Zm-.4-6.575a1.016,1.016,0,0,1,.94-1.076h.885a1.086,1.086,0,0,1,0,2.153h-.885A1.016,1.016,0,0,1,45.017,70.113Z" transform="translate(0 -54.981)" fill="#3e9cee"/>
          </g>
        </g>
        <g id="Group_68" data-name="Group 68" transform="translate(7.354 30.153)">
          <g id="Group_67" data-name="Group 67">
            <path id="Path_35" data-name="Path 35" d="M75.087,329.879A2.154,2.154,0,1,0,76.868,332,1.976,1.976,0,0,0,75.087,329.879Z" transform="translate(-73.306 -329.879)" fill="#3e9cee"/>
          </g>
        </g>
        <g id="Group_70" data-name="Group 70" transform="translate(38.525 30.153)">
          <g id="Group_69" data-name="Group 69">
            <path id="Path_36" data-name="Path 36" d="M404.967,329.879A2.154,2.154,0,1,0,406.748,332,1.976,1.976,0,0,0,404.967,329.879Z" transform="translate(-403.186 -329.879)" fill="#3e9cee"/>
          </g>
        </g>
        <g id="Group_72" data-name="Group 72" transform="translate(5.515 21.953)">
          <g id="Group_71" data-name="Group 71">
            <path id="Path_37" data-name="Path 37" d="M58.14,256.573c-1.742,0-3.16,1.688-3.16,3.763S56.4,264.1,58.14,264.1s3.16-1.688,3.16-3.764S59.882,256.573,58.14,256.573Zm0,5.474a1.737,1.737,0,1,1,1.436-1.711A1.593,1.593,0,0,1,58.14,262.047Z" transform="translate(-54.98 -256.573)" fill="#3e9cee"/>
          </g>
        </g>
        <g id="Group_74" data-name="Group 74" transform="translate(37.606 21.953)">
          <g id="Group_73" data-name="Group 73">
            <path id="Path_38" data-name="Path 38" d="M397.182,256.573c-1.742,0-3.16,1.688-3.16,3.763s1.417,3.764,3.16,3.764,3.16-1.688,3.16-3.764S398.924,256.573,397.182,256.573Zm0,5.474a1.737,1.737,0,1,1,1.436-1.711A1.593,1.593,0,0,1,397.182,262.047Z" transform="translate(-394.022 -256.573)" fill="#3e9cee"/>
          </g>
        </g>
      </g>
      <g id="dog" transform="translate(1063.654 -130.171)">
        <g id="Group_76" data-name="Group 76" transform="translate(0)">
          <g id="Group_75" data-name="Group 75">
            <path id="Path_39" data-name="Path 39" d="M64.992,224.356a.247.247,0,0,0,.332-.112.254.254,0,0,0-.109-.338,2.476,2.476,0,0,1-1.111-1.832.249.249,0,0,0-.219-.209.246.246,0,0,0-.258.157,3.735,3.735,0,0,0,.521,3,.246.246,0,0,0,.345.07.254.254,0,0,0,.069-.349,4.277,4.277,0,0,1-.557-1.43A2.6,2.6,0,0,0,64.992,224.356Z" transform="translate(-62.616 -215.315)" fill="#3e9cee"/>
            <path id="Path_40" data-name="Path 40" d="M87.371,307.7a.252.252,0,0,0,.2-.3.248.248,0,0,0-.293-.2,1.937,1.937,0,0,0-1.443,2.01,5.371,5.371,0,0,0,.361,2.05.952.952,0,0,0-.859.972,1.106,1.106,0,0,0,1.243,1.007h.249a.929.929,0,0,0,.693-.349.254.254,0,0,0-.043-.354.246.246,0,0,0-.349.043.44.44,0,0,1-.3.155h-.249c-.371,0-.746-.173-.746-.5,0-.125,0-.5.746-.5a.248.248,0,0,0,.218-.133.255.255,0,0,0-.011-.258,4.225,4.225,0,0,1-.456-2.128A1.433,1.433,0,0,1,87.371,307.7Z" transform="translate(-83.841 -298.135)" fill="#3e9cee"/>
            <path id="Path_41" data-name="Path 41" d="M351.242,311.27a5.37,5.37,0,0,0,.361-2.05,1.937,1.937,0,0,0-1.443-2.01.249.249,0,0,0-.293.2.252.252,0,0,0,.2.3,1.418,1.418,0,0,1,1.043,1.516,4.226,4.226,0,0,1-.456,2.127.255.255,0,0,0-.012.259.248.248,0,0,0,.219.133c.746,0,.746.379.746.5,0,.331-.375.5-.746.5h-.249a.444.444,0,0,1-.3-.157.247.247,0,0,0-.347-.042.254.254,0,0,0-.043.354.929.929,0,0,0,.693.349h.249a1.106,1.106,0,0,0,1.243-1.007A.952.952,0,0,0,351.242,311.27Z" transform="translate(-340.661 -298.138)" fill="#3e9cee"/>
            <path id="Path_42" data-name="Path 42" d="M174.69,344.375l.452-2.748a.252.252,0,0,0-.2-.29.249.249,0,0,0-.286.207l-.463,2.812h-.038a.252.252,0,0,0,0,.5h.249c.746,0,.746.379.746.5,0,.331-.375.5-.746.5h-.249a.752.752,0,0,1-.746-.756v-3.526a.249.249,0,1,0-.5,0v3.526a.752.752,0,0,1-.746.756h-.249c-.371,0-.746-.173-.746-.5,0-.125,0-.5.746-.5h.249a.252.252,0,0,0,0-.5h-.038l-.463-2.812a.249.249,0,0,0-.286-.207.251.251,0,0,0-.2.29l.452,2.748a.972.972,0,0,0-.953.988,1.106,1.106,0,0,0,1.243,1.007h.249a1.238,1.238,0,0,0,.995-.5,1.237,1.237,0,0,0,.995.5h.249a1.106,1.106,0,0,0,1.243-1.007A.972.972,0,0,0,174.69,344.375Z" transform="translate(-166.69 -331.259)" fill="#3e9cee"/>
            <path id="Path_43" data-name="Path 43" d="M46.79,2.154A3.957,3.957,0,0,0,44.08,0c-.48,0-1.307.754-1.722,1.165a2.672,2.672,0,0,0-3.52,0C38.424.754,37.6,0,37.117,0a3.957,3.957,0,0,0-2.709,2.154,2.785,2.785,0,0,0-.275,1.12,1.253,1.253,0,0,0,1.243,1.259,1.3,1.3,0,0,0,1.116-.742l.085-.125.995-1.511a.254.254,0,0,0-.069-.349.246.246,0,0,0-.345.07l-.991,1.506c-.029.042-.058.085-.087.127-.224.333-.367.522-.705.522a.752.752,0,0,1-.746-.756,2.266,2.266,0,0,1,.223-.895A3.571,3.571,0,0,1,37.117.5a4.042,4.042,0,0,1,1.37,1.019A7.65,7.65,0,0,0,37.117,6.3c0,2.325,1.009,3.274,3.482,3.274S44.08,8.622,44.08,6.3a7.65,7.65,0,0,0-1.37-4.774A4.04,4.04,0,0,1,44.08.5a3.572,3.572,0,0,1,2.265,1.876,2.269,2.269,0,0,1,.222.895.752.752,0,0,1-.746.756c-.35,0-.489-.186-.722-.543L44.039,1.875a.246.246,0,0,0-.345-.07.254.254,0,0,0-.069.349l1.06,1.61a1.3,1.3,0,0,0,1.137.769,1.253,1.253,0,0,0,1.243-1.259A2.785,2.785,0,0,0,46.79,2.154ZM43.583,6.3c0,2.046-.781,2.77-2.984,2.77s-2.984-.725-2.984-2.77c0-2.633.923-5.289,2.984-5.289S43.583,3.664,43.583,6.3Z" transform="translate(-34.133)" fill="#3e9cee"/>
            <path id="Path_44" data-name="Path 44" d="M199.275,189.633c-.043.084-.209.114-.276.115a.83.83,0,0,1-.7-.54.8.8,0,0,0,.7-.72c0-.424-.437-.756-.995-.756s-.995.332-.995.756a.8.8,0,0,0,.7.72.829.829,0,0,1-.7.54c-.071,0-.234-.031-.279-.118a.247.247,0,0,0-.336-.1.253.253,0,0,0-.1.341.834.834,0,0,0,.717.386,1.279,1.279,0,0,0,.995-.543,1.279,1.279,0,0,0,.995.543.83.83,0,0,0,.718-.388.253.253,0,0,0-.107-.339A.247.247,0,0,0,199.275,189.633ZM198,188.74c-.3,0-.5-.152-.5-.252s.2-.252.5-.252.5.149.5.252S198.307,188.74,198,188.74Z" transform="translate(-191.538 -182.192)" fill="#3e9cee"/>
            <path id="Path_45" data-name="Path 45" d="M281.973,128.756a.378.378,0,1,0-.373-.378A.376.376,0,0,0,281.973,128.756Z" transform="translate(-274.388 -124.222)" fill="#3e9cee"/>
            <path id="Path_46" data-name="Path 46" d="M205.173,128.756a.378.378,0,1,0-.373-.378A.376.376,0,0,0,205.173,128.756Z" transform="translate(-199.826 -124.222)" fill="#3e9cee"/>
          </g>
        </g>
      </g>
      <g id="Path_57" data-name="Path 57" transform="translate(1059.287 -134)" fill="none">
        <path d="M3.28,0H18.722C20.534,0,22,2.327,22,5.2V19.278c0,2.871-1.468,5.2-3.28,5.2H11.58L0,30.494l3.28-6.018c-1.811,0-3.28-2.327-3.28-5.2V5.2C0,2.327,1.468,0,3.28,0Z" stroke="none"/>
        <path d="M 3.279829025268555 2.000003814697266 C 3.196439743041992 2.000003814697266 2.933279037475586 2.144174575805664 2.652128219604492 2.589803695678711 C 2.237689971923828 3.246683120727539 2 4.197534561157227 2 5.198543548583984 L 2 19.27793502807617 C 2 20.27894401550293 2.237689971923828 21.22980499267578 2.652128219604492 21.88668441772461 C 2.933279037475586 22.33231353759766 3.196439743041992 22.47648239135742 3.279829025268555 22.47648239135742 L 6.647639274597168 22.47648239135742 L 5.035938262939453 25.43360328674316 L 4.891685485839844 25.69827651977539 L 10.65785884857178 22.70180320739746 L 11.09145927429199 22.47648239135742 L 11.58009910583496 22.47648239135742 L 18.72234916687012 22.47648239135742 C 18.80573844909668 22.47648239135742 19.06889915466309 22.33231353759766 19.35004806518555 21.88668441772461 C 19.76448822021484 21.22980499267578 20.00217819213867 20.27894401550293 20.00217819213867 19.27793502807617 L 20.00217819213867 5.198543548583984 C 20.00217819213867 4.197534561157227 19.76448822021484 3.246683120727539 19.35004806518555 2.589803695678711 C 19.06889915466309 2.144174575805664 18.80573844909668 2.000003814697266 18.72234916687012 2.000003814697266 L 3.279829025268555 2.000003814697266 M 3.279829025268555 3.814697265625e-06 L 18.72234916687012 3.814697265625e-06 C 20.53374862670898 3.814697265625e-06 22.00217819213867 2.327463150024414 22.00217819213867 5.198543548583984 L 22.00217819213867 19.27793502807617 C 22.00217819213867 22.14901351928711 20.53374862670898 24.47648429870605 18.72234916687012 24.47648429870605 L 11.58009910583496 24.47648429870605 L 0 30.49424362182617 L 3.279829025268555 24.47648429870605 C 1.468429565429688 24.47648429870605 0 22.14901351928711 0 19.27793502807617 L 0 5.198543548583984 C 0 2.327463150024414 1.468429565429688 3.814697265625e-06 3.279829025268555 3.814697265625e-06 Z" stroke="none" fill="#3e9cee"/>
      </g>
    </g>
  </g>
</svg>
