<svg xmlns="http://www.w3.org/2000/svg" width="133.306" height="142.242" viewBox="0 0 133.306 142.242">
  <path id="Union_5" data-name="Union 5" d="M13.051,142.242V48.8L4.378,55.071,0,48.169,66.653,0l66.653,48.169-4.378,6.9L120.255,48.8v93.442Zm7.807-8.334h91.589v-8.348H20.858ZM89.242,85.975v31.251h23.206V43.16L66.653,10.065,20.858,43.16v74.066h23.2V85.975c0-13.3,10.134-24.114,22.591-24.114S89.242,72.679,89.242,85.975Zm-37.372,0v31.251H81.436V85.975c0-8.7-6.632-15.369-14.783-15.369S51.871,77.274,51.871,85.975ZM41.127,62.81c-.1-.094-.2-.193-.3-.292a9.653,9.653,0,0,1-2.719-6.278,8.856,8.856,0,0,1,2.921-7.214,9.01,9.01,0,0,1-.941-.835,9.652,9.652,0,0,1-2.718-6.278,9.009,9.009,0,0,1,2.067-6.35,7.487,7.487,0,0,1,5.643-2.7,8.091,8.091,0,0,1,5.912,2.53,9.6,9.6,0,0,1,2.557,4.937l25.56-.378a8.754,8.754,0,0,1,2.228-4.7,7.489,7.489,0,0,1,5.392-2.42,8.094,8.094,0,0,1,5.912,2.53,9.664,9.664,0,0,1,2.719,6.279,8.864,8.864,0,0,1-2.921,7.214,9.1,9.1,0,0,1,.94.835A9.665,9.665,0,0,1,96.1,55.965c.253,4.924-3.206,8.984-7.711,9.049a8.09,8.09,0,0,1-5.912-2.529,9.619,9.619,0,0,1-2.651-5.52l-25.4.376a8.838,8.838,0,0,1-2.1,5.067,7.487,7.487,0,0,1-5.591,2.639h-.115A8.037,8.037,0,0,1,41.127,62.81Zm4.078-27.582a5.5,5.5,0,0,0-4.148,1.984,6.62,6.62,0,0,0-1.52,4.667,7.1,7.1,0,0,0,2,4.615,6.336,6.336,0,0,0,2.032,1.4,1.122,1.122,0,0,1,.329.215l.038.036a1.293,1.293,0,0,1,.36.832,1.139,1.139,0,0,1-.615,1.1,6.3,6.3,0,0,0-3.4,6.125,7.093,7.093,0,0,0,2,4.615,5.95,5.95,0,0,0,4.345,1.86,6.051,6.051,0,0,0,5.674-6.517,1.085,1.085,0,0,1,1.022-1.174l27.454-.407a1.084,1.084,0,0,1,.8.358,1.292,1.292,0,0,1,.341.873c0,.122,0,.243.009.359a7.105,7.105,0,0,0,2,4.615,5.951,5.951,0,0,0,4.346,1.859C91.578,62.6,94.12,59.616,93.935,56a7.1,7.1,0,0,0-2-4.614,6.308,6.308,0,0,0-2.032-1.4,1.244,1.244,0,0,1-.726-1.084,1.139,1.139,0,0,1,.614-1.1,6.3,6.3,0,0,0,3.4-6.125,7.1,7.1,0,0,0-2-4.615A5.777,5.777,0,0,0,81.18,41.215,1.077,1.077,0,0,1,80.158,42.3l-27.475.406a1.186,1.186,0,0,1-1.142-1.143,7.1,7.1,0,0,0-1.99-4.478,5.95,5.95,0,0,0-4.26-1.86ZM52.68,47.767l-.063-.061A2.2,2.2,0,0,1,52,46.233a2.045,2.045,0,0,1,1.863-2.187L65.573,43.6a1.785,1.785,0,0,1,.6-.13l.062,0a1.781,1.781,0,0,1,.689.111,2.139,2.139,0,0,1-.2,4.207L54,48.271h-.067A1.835,1.835,0,0,1,52.68,47.767Z" fill="#3e9cee"/>
</svg>
