<svg xmlns="http://www.w3.org/2000/svg" xmlns:xlink="http://www.w3.org/1999/xlink" width="74" height="74" viewBox="0 0 74 74">
  <defs>
    <clipPath id="clip-path">
      <rect width="74" height="74" fill="none"/>
    </clipPath>
  </defs>
  <g id="Repeat_Grid_3" data-name="Repeat Grid 3" clip-path="url(#clip-path)">
    <g transform="translate(-1287 -219)">
      <g id="pet-comb" transform="translate(1288.273 232)">
        <path id="Path_48" data-name="Path 48" d="M337.795,272.46a4.459,4.459,0,0,0-4.692,4.169,1.7,1.7,0,0,0,1.879,1.812,7.827,7.827,0,0,0,1.622-.243,6.579,6.579,0,0,1,1.191-.2,6.339,6.339,0,0,1,1.1.187,8,8,0,0,0,1.676.252h0a1.713,1.713,0,0,0,1.912-1.812A4.459,4.459,0,0,0,337.795,272.46Zm2.968,4.339a.88.88,0,0,1-.188.016,6.847,6.847,0,0,1-1.288-.21,7.205,7.205,0,0,0-1.492-.23,7.657,7.657,0,0,0-1.576.238,6.7,6.7,0,0,1-1.237.2.89.89,0,0,1-.155-.011.785.785,0,0,1-.016-.174,3.023,3.023,0,0,1,5.968,0A.709.709,0,0,1,340.763,276.8Z" transform="translate(-288.724 -246.087)" fill="#3e9cee"/>
        <path id="Path_49" data-name="Path 49" d="M315.251,237.8a2.122,2.122,0,1,0-2.111,2.339A2.236,2.236,0,0,0,315.251,237.8Zm-2.111.711c-.16,0-.4-.284-.4-.711s.243-.711.4-.711.4.284.4.711S313.3,238.508,313.139,238.508Z" transform="translate(-268.892 -212.667)" fill="#3e9cee"/>
        <path id="Path_50" data-name="Path 50" d="M361.918,214.08a2.351,2.351,0,1,0-2.111-2.339A2.236,2.236,0,0,0,361.918,214.08Zm0-3.05c.161,0,.4.284.4.711s-.243.711-.4.711-.4-.284-.4-.711S361.758,211.03,361.918,211.03Z" transform="translate(-312.715 -189.134)" fill="#3e9cee"/>
        <path id="Path_51" data-name="Path 51" d="M410.7,235.458a2.351,2.351,0,1,0,2.111,2.339A2.236,2.236,0,0,0,410.7,235.458Zm0,3.05c-.161,0-.4-.284-.4-.711s.243-.711.4-.711.4.284.4.711S410.856,238.508,410.7,238.508Z" transform="translate(-356.536 -212.667)" fill="#3e9cee"/>
        <path id="Path_52" data-name="Path 52" d="M34.051,10.16a6.116,6.116,0,0,1-.068-1.47,5,5,0,0,0-.347-2.476,5.52,5.52,0,0,0-1.994-1.943A6.578,6.578,0,0,1,30.6,3.462a7.445,7.445,0,0,1-.8-1.1A4.936,4.936,0,0,0,27.88.332,3.7,3.7,0,0,0,26.252,0,10.983,10.983,0,0,0,24.79.13a9.517,9.517,0,0,1-1.223.114A9.519,9.519,0,0,1,22.345.13,10.979,10.979,0,0,0,20.882,0a3.7,3.7,0,0,0-1.628.332,4.936,4.936,0,0,0-1.923,2.025,7.457,7.457,0,0,1-.8,1.1,6.578,6.578,0,0,1-1.042.809A5.52,5.52,0,0,0,13.5,6.214a5,5,0,0,0-.347,2.476,6.1,6.1,0,0,1-.068,1.47,5.67,5.67,0,0,1-.548,1.263,5.361,5.361,0,0,0-.808,2.464,5.362,5.362,0,0,0,.808,2.464,5.669,5.669,0,0,1,.548,1.263,6.11,6.11,0,0,1,.068,1.47,5,5,0,0,0,.347,2.476A5.522,5.522,0,0,0,15.492,23.5a6.593,6.593,0,0,1,1.042.809,7.457,7.457,0,0,1,.8,1.1,4.936,4.936,0,0,0,1.923,2.025,3.208,3.208,0,0,0,.638.223,51.883,51.883,0,0,1,0,5.759c-.156,1.133-.389,2.319-.614,3.465a25.4,25.4,0,0,0-.627,4.257c0,3.843,2.16,6.853,4.918,6.853s4.918-3.01,4.918-6.853a25.4,25.4,0,0,0-.626-4.257c-.226-1.147-.459-2.333-.614-3.465a53.194,53.194,0,0,1,0-5.759,3.2,3.2,0,0,0,.637-.223A4.936,4.936,0,0,0,29.8,25.418a7.452,7.452,0,0,1,.8-1.1,6.583,6.583,0,0,1,1.042-.809,5.52,5.52,0,0,0,1.994-1.943,5,5,0,0,0,.347-2.476,6.1,6.1,0,0,1,.068-1.47,5.666,5.666,0,0,1,.548-1.263,5.361,5.361,0,0,0,.808-2.464,5.362,5.362,0,0,0-.808-2.464A5.666,5.666,0,0,1,34.051,10.16ZM23.567,46.373c-1.74,0-3.21-2.393-3.21-5.226a25.258,25.258,0,0,1,.6-3.957c.23-1.169.468-2.377.629-3.554a51.279,51.279,0,0,0,.02-5.9c.25-.025.5-.058.741-.091a9.519,9.519,0,0,1,1.223-.114,9.518,9.518,0,0,1,1.223.114c.243.033.491.066.741.091a51.324,51.324,0,0,0,.02,5.9c.162,1.177.4,2.386.629,3.554a25.258,25.258,0,0,1,.6,3.957C26.777,43.98,25.307,46.373,23.567,46.373Zm9.505-30.75a6.867,6.867,0,0,0-.691,1.649,7.336,7.336,0,0,0-.105,1.858,3.872,3.872,0,0,1-.18,1.725,4.19,4.19,0,0,1-1.448,1.325,7.875,7.875,0,0,0-1.318,1.044,8.764,8.764,0,0,0-.988,1.349,3.746,3.746,0,0,1-1.228,1.415,1.962,1.962,0,0,1-.862.16,9.516,9.516,0,0,1-1.224-.114,10.966,10.966,0,0,0-1.461-.13,10.984,10.984,0,0,0-1.461.13,9.52,9.52,0,0,1-1.224.114,1.961,1.961,0,0,1-.862-.16,3.745,3.745,0,0,1-1.228-1.415,8.766,8.766,0,0,0-.988-1.349,7.868,7.868,0,0,0-1.317-1.043,4.189,4.189,0,0,1-1.448-1.325,3.873,3.873,0,0,1-.179-1.725,7.336,7.336,0,0,0-.105-1.858,6.868,6.868,0,0,0-.691-1.649,4.1,4.1,0,0,1-.627-1.736,4.1,4.1,0,0,1,.627-1.736,6.863,6.863,0,0,0,.691-1.649,7.331,7.331,0,0,0,.105-1.858,3.873,3.873,0,0,1,.18-1.725,4.19,4.19,0,0,1,1.448-1.325A7.871,7.871,0,0,0,17.8,4.55,8.771,8.771,0,0,0,18.791,3.2,3.746,3.746,0,0,1,20.02,1.787a1.962,1.962,0,0,1,.862-.16,9.515,9.515,0,0,1,1.224.114,10.964,10.964,0,0,0,1.461.13,10.966,10.966,0,0,0,1.461-.13,9.518,9.518,0,0,1,1.224-.114,1.961,1.961,0,0,1,.862.16A3.746,3.746,0,0,1,28.343,3.2a8.76,8.76,0,0,0,.988,1.349,7.871,7.871,0,0,0,1.318,1.044A4.189,4.189,0,0,1,32.1,6.919a3.872,3.872,0,0,1,.18,1.725,7.336,7.336,0,0,0,.105,1.858,6.868,6.868,0,0,0,.691,1.649,4.1,4.1,0,0,1,.627,1.736A4.1,4.1,0,0,1,33.072,15.623Z" transform="translate(0 0)" fill="#3e9cee"/>
        <path id="Path_53" data-name="Path 53" d="M298.62,26.925h-1.843V24.38a2.865,2.865,0,0,0-2.928-2.79h-5.255a2.865,2.865,0,0,0-2.928,2.79v2.546h-1.843a2.865,2.865,0,0,0-2.928,2.79v27.6a2.865,2.865,0,0,0,2.928,2.79h14.8a2.865,2.865,0,0,0,2.928-2.79v-27.6A2.864,2.864,0,0,0,298.62,26.925ZM282.6,38.7H299.84V53.162H282.6Zm4.771-14.317a1.194,1.194,0,0,1,1.22-1.163h5.255a1.194,1.194,0,0,1,1.22,1.163v2.546h-7.7V24.38Zm-3.55,4.173h14.8a1.194,1.194,0,0,1,1.22,1.163v7.354H282.6V29.715A1.194,1.194,0,0,1,283.824,28.553Zm14.8,29.924h-14.8a1.194,1.194,0,0,1-1.22-1.163V54.789H299.84v2.525A1.194,1.194,0,0,1,298.62,58.477Z" transform="translate(-241.821 -19.5)" fill="#3e9cee"/>
      </g>
      <g id="Group_86" data-name="Group 86" transform="translate(65 152)">
        <g id="Ellipse_3" data-name="Ellipse 3" transform="translate(1222 67)" fill="none" stroke="#3e9cee" stroke-width="2">
          <circle cx="37" cy="37" r="37" stroke="none"/>
          <circle cx="37" cy="37" r="36" fill="none"/>
        </g>
      </g>
    </g>
  </g>
</svg>
