<svg xmlns="http://www.w3.org/2000/svg" width="374.998" height="512" viewBox="0 0 374.998 512">
  <g id="shopping-bag" transform="translate(-0.001)">
    <path id="Path_147" data-name="Path 147" d="M365.133,101.754a10,10,0,0,0-10-9.754h-78.75V90c0-49.629-39.875-90-88.887-90S98.61,40.371,98.61,90v2H19.86a10,10,0,0,0-10,9.754L0,501.754A10,10,0,0,0,10,512H266.383a10,10,0,0,0,0-20H20.25l9.367-380H98.61v28.7a30.712,30.712,0,1,0,20,0V112h29.441a10,10,0,0,0,0-20H118.61V90c0-38.6,30.9-70,68.891-70s68.887,31.4,68.887,70v2H226.942a10,10,0,0,0,0,20h29.445v28.7a30.712,30.712,0,1,0,20,0V112h68.992l9.371,380h-9.48a10,10,0,1,0,0,20H365a10,10,0,0,0,10-10.246ZM108.61,181a11,11,0,0,1-.008-22h.02a11,11,0,0,1-.012,22Zm157.777,0a11,11,0,0,1-.008-22h.02a11,11,0,0,1-.012,22Zm0,0" fill="#3e9cee"/>
    <path id="Path_148" data-name="Path 148" d="M197.5,102a10,10,0,0,0-10-10h-.008A10,10,0,1,0,197.5,102Zm0,0" fill="#3e9cee"/>
    <path id="Path_149" data-name="Path 149" d="M305.832,492h-.008a10,10,0,1,0,.008,0Zm0,0" fill="#3e9cee"/>
    <path id="Path_150" data-name="Path 150" d="M168.164,438.125c6.238-.312,12.688-.641,19.336-.641s13.1.328,19.336.641c5.676.289,11.133.563,16.3.563,13.074,0,24.289-1.762,32.5-9.57,6.953-6.613,10.332-16.383,10.332-29.875,0-43.8-35.2-79.437-78.473-79.437s-78.477,35.637-78.477,79.438c0,13.492,3.383,23.262,10.336,29.875,11.461,10.895,28.766,10.023,48.8,9.008ZM187.5,339.8c32.242,0,58.473,26.664,58.473,59.441,0,7.609-1.383,12.781-4.113,15.379-5.242,4.984-19.219,4.277-34.016,3.531-6.484-.328-13.191-.668-20.344-.668s-13.859.34-20.344.668c-14.8.746-28.773,1.453-34.016-3.531-2.73-2.6-4.117-7.77-4.117-15.379,0-32.777,26.234-59.441,58.477-59.441Zm0,0" fill="#3e9cee"/>
    <path id="Path_151" data-name="Path 151" d="M156.32,278.953c0,18.551,13.984,33.641,31.18,33.641s31.18-15.09,31.18-33.641-13.988-33.641-31.18-33.641S156.32,260.4,156.32,278.953Zm31.18-13.641c6.059,0,11.18,6.246,11.18,13.641s-5.121,13.641-11.18,13.641-11.18-6.246-11.18-13.641S181.437,265.312,187.5,265.312Zm0,0" fill="#3e9cee"/>
    <path id="Path_152" data-name="Path 152" d="M137.656,289.066a34.6,34.6,0,0,0-20.82-16.371,29.78,29.78,0,0,0-22.922,2.953C79.1,284.324,74.469,304.414,83.59,320.437a34.6,34.6,0,0,0,20.82,16.371,31.115,31.115,0,0,0,8.039,1.07,29.345,29.345,0,0,0,14.883-4.023c14.813-8.672,19.445-28.766,10.324-44.789ZM117.226,316.6a9.841,9.841,0,0,1-7.641.891,14.46,14.46,0,0,1-8.613-6.945c-3.73-6.555-2.363-14.465,3.047-17.633a9.333,9.333,0,0,1,4.77-1.281,11.219,11.219,0,0,1,2.871.387,14.477,14.477,0,0,1,8.613,6.945c3.73,6.555,2.363,14.465-3.047,17.637Zm0,0" fill="#3e9cee"/>
    <path id="Path_153" data-name="Path 153" d="M281.082,275.648a29.768,29.768,0,0,0-22.918-2.953,34.58,34.58,0,0,0-20.82,16.371c-9.121,16.023-4.492,36.113,10.324,44.789a29.331,29.331,0,0,0,14.879,4.023,31.145,31.145,0,0,0,8.043-1.07,34.584,34.584,0,0,0,20.816-16.371C300.527,304.414,295.9,284.324,281.082,275.648Zm-7.055,34.895a14.456,14.456,0,0,1-8.617,6.945,9.854,9.854,0,0,1-7.637-.895c-5.414-3.168-6.781-11.078-3.051-17.633a14.456,14.456,0,0,1,8.617-6.945,11.032,11.032,0,0,1,2.867-.391,9.333,9.333,0,0,1,4.77,1.281c5.414,3.172,6.781,11.082,3.051,17.637Zm0,0" fill="#3e9cee"/>
  </g>
</svg>
