<svg xmlns="http://www.w3.org/2000/svg" width="512" height="490.971" viewBox="0 0 512 490.971">
  <g id="ultrasonography" transform="translate(0 -10.514)">
    <g id="Group_92" data-name="Group 92">
      <g id="Group_91" data-name="Group 91">
        <path id="Path_95" data-name="Path 95" d="M215,319.5a15,15,0,1,0,14.988,14.988A15.026,15.026,0,0,0,215,319.5Z" fill="#3e9cee"/>
      </g>
    </g>
    <g id="Group_94" data-name="Group 94">
      <g id="Group_93" data-name="Group 93">
        <path id="Path_96" data-name="Path 96" d="M165,319.5a15,15,0,1,0,14.988,14.988A15.026,15.026,0,0,0,165,319.5Z" fill="#3e9cee"/>
      </g>
    </g>
    <g id="Group_96" data-name="Group 96">
      <g id="Group_95" data-name="Group 95">
        <path id="Path_97" data-name="Path 97" d="M115,319.5a15,15,0,1,0,14.988,14.988A15.026,15.026,0,0,0,115,319.5Z" fill="#3e9cee"/>
      </g>
    </g>
    <g id="Group_98" data-name="Group 98">
      <g id="Group_97" data-name="Group 97">
        <path id="Path_98" data-name="Path 98" d="M65.007,319.5A15,15,0,1,0,80,334.484,15.026,15.026,0,0,0,65.007,319.5Z" fill="#3e9cee"/>
      </g>
    </g>
    <g id="Group_100" data-name="Group 100">
      <g id="Group_99" data-name="Group 99">
        <path id="Path_99" data-name="Path 99" d="M324.992,319.5a15,15,0,1,0,14.988,14.988A15.026,15.026,0,0,0,324.992,319.5Z" fill="#3e9cee"/>
      </g>
    </g>
    <g id="Group_102" data-name="Group 102">
      <g id="Group_101" data-name="Group 101">
        <path id="Path_100" data-name="Path 100" d="M240.56,54.112,229.514,57a137.671,137.671,0,0,1-69.051,0l-11.046-2.887L54.475,217.965l13.042,7.5a254.3,254.3,0,0,0,94.2,31.854,256.816,256.816,0,0,0,33.448,2.194,254.634,254.634,0,0,0,65.809-8.669,255.536,255.536,0,0,0,61.49-25.379l13.042-7.5Zm12.673,167.751a224.705,224.705,0,0,1-87.617,5.715,224.389,224.389,0,0,1-69.85-21.041L164.135,88.546a167.873,167.873,0,0,0,61.708,0l68.365,117.985A225.491,225.491,0,0,1,253.233,221.863Z" fill="#3e9cee"/>
      </g>
    </g>
    <g id="Group_104" data-name="Group 104">
      <g id="Group_103" data-name="Group 103">
        <path id="Path_101" data-name="Path 101" d="M186.966,175.86a91.786,91.786,0,0,1-45.229-9.57l-13.429,26.824a121.857,121.857,0,0,0,54.4,12.843q2.835,0,5.667-.133Z" fill="#3e9cee"/>
      </g>
    </g>
    <g id="Group_106" data-name="Group 106">
      <g id="Group_105" data-name="Group 105">
        <path id="Path_102" data-name="Path 102" d="M247.953,146.29a91.779,91.779,0,0,1-45.229,9.571l-1.412,29.965q2.832.134,5.667.133a121.849,121.849,0,0,0,54.4-12.844Z" fill="#3e9cee"/>
      </g>
    </g>
    <g id="Group_108" data-name="Group 108">
      <g id="Group_107" data-name="Group 107">
        <path id="Path_103" data-name="Path 103" d="M218.133,108.728a92.175,92.175,0,0,1-46.229,0l-7.586,29.023a121.785,121.785,0,0,0,61.4,0Z" fill="#3e9cee"/>
      </g>
    </g>
    <g id="Group_110" data-name="Group 110">
      <g id="Group_109" data-name="Group 109">
        <path id="Path_104" data-name="Path 104" d="M504.97,113.508a81.663,81.663,0,0,0-97.994,0l-7.03,5.272,12.9,96.722h28.131V420.99a50.5,50.5,0,0,1-100.994,0v-20.5h50V10.514H0V400.491H309.982v20.5a80.495,80.495,0,0,0,160.99,0V215.5H499.1L512,118.78ZM30,40.513H359.979V270.5H30Zm0,329.98v-70H359.979v70ZM472.839,185.5H439.107l-7-52.478a52.094,52.094,0,0,1,47.726,0Z" fill="#3e9cee"/>
      </g>
    </g>
  </g>
</svg>
