<svg xmlns="http://www.w3.org/2000/svg" width="511.301" height="511.999" viewBox="0 0 511.301 511.999">
  <g id="animals" transform="translate(0)">
    <path id="Path_105" data-name="Path 105" d="M472.621,145.418l17.656,17.656L511.3,142.051,369.25,0,348.226,21.023,365.5,38.3l-4.453,32.973L323.34,108.98,291.8,77.445,270.781,98.469l10.512,10.512L43.141,347.128l15.25,15.25.012,51.664L0,512l96.137-60.473h51.4l14.75,14.746,71-70.973A107.039,107.039,0,1,0,371.605,256.956l28.832-28.832,12.395,12.395L433.855,219.5,402.32,187.96l37.773-37.773ZM88.137,421.793l-.008-29.676L117.8,421.793Zm322.352-64.934a77.309,77.309,0,1,1-77.309-77.312A77.4,77.4,0,0,1,410.489,356.859Zm-73.848-106.98c-1.152-.039-2.3-.062-3.461-.062A107.16,107.16,0,0,0,226.141,356.856c0,1.168.023,2.328.063,3.484L162.29,424.231l-77.1-77.1,34.25-34.246,17.691,17.691,21.023-21.023-17.7-17.691,21.023-21.023,36.82,36.82,21.023-21.023-36.82-36.82,21.023-21.023,17.691,17.7,21.023-21.023-17.691-17.7,21.023-21.023,36.816,36.82,21.023-21.023L266.6,165.719,302.317,130l77.1,77.1ZM381.3,166.938,344.364,130l44.8-44.809,2.762-20.465,54.484,54.48L426.04,122.2Zm0,0" fill="#3e9cee"/>
    <path id="Path_106" data-name="Path 106" d="M318.313,318.875c.363,8.055,6.535,14.867,14.867,14.867,7.777,0,15.227-6.836,14.867-14.867-.363-8.051-6.535-14.863-14.867-14.863C325.407,304.012,317.954,310.848,318.313,318.875Zm0,0" fill="#3e9cee"/>
    <path id="Path_107" data-name="Path 107" d="M307.664,333.742c-.363-8.055-6.535-14.863-14.867-14.863-7.773,0-15.227,6.836-14.867,14.863.363,8.055,6.535,14.867,14.867,14.867C300.574,348.609,308.023,341.769,307.664,333.742Zm0,0" fill="#3e9cee"/>
    <path id="Path_108" data-name="Path 108" d="M373.563,348.609c7.777,0,15.227-6.84,14.867-14.867-.363-8.055-6.535-14.863-14.867-14.863-7.773,0-15.227,6.836-14.867,14.863C359.059,341.8,365.231,348.609,373.563,348.609Zm0,0" fill="#3e9cee"/>
    <path id="Path_109" data-name="Path 109" d="M333.734,348.391A39.975,39.975,0,0,0,293.2,388.364c0,.449.008.895.023,1.355a20.654,20.654,0,0,0,33.563,15.457,10.251,10.251,0,0,1,12.777,0,20.685,20.685,0,0,0,33.57-15.566l.012-.43a40.07,40.07,0,0,0-39.414-40.789Zm0,0" fill="#3e9cee"/>
  </g>
</svg>
