<svg xmlns="http://www.w3.org/2000/svg" width="381.669" height="381.669" viewBox="0 0 381.669 381.669">
  <g id="wheelchair" transform="translate(0)">
    <path id="Path_67" data-name="Path 67" d="M316.312,64.648H304a22.633,22.633,0,0,0,7.259,16.583l50.125,46.275,8.35-9.051L319.606,72.184a10.278,10.278,0,0,1-3.294-7.536Zm0,0" transform="translate(-70.074 -14.902)" fill="#3e9cee"/>
    <path id="Path_68" data-name="Path 68" d="M397.169,0a47.418,47.418,0,0,0-37.753,18.874l-1.232,1.644-1.232-1.644A47.2,47.2,0,0,0,272,47.2v2.555a47.318,47.318,0,0,0,15.186,34.681l71,65.53,71-65.536a47.318,47.318,0,0,0,15.186-34.681V47.2A47.248,47.248,0,0,0,397.169,0Zm34.886,49.747A34.988,34.988,0,0,1,420.831,75.38L358.183,133.21,295.536,75.38a34.988,34.988,0,0,1-11.224-25.634V47.2a34.887,34.887,0,0,1,62.8-20.93l11.079,14.774,11.079-14.774A34.879,34.879,0,0,1,432.055,47.2Zm0,0" transform="translate(-62.697)" fill="#3e9cee"/>
    <path id="Path_69" data-name="Path 69" d="M129.872,272a73.872,73.872,0,1,0,73.872,73.872A73.952,73.952,0,0,0,129.872,272Zm61.56,73.872a61.142,61.142,0,0,1-5.486,25.264L153.5,352.4a22,22,0,0,0,0-13.063l32.442-18.732a61.143,61.143,0,0,1,5.486,25.264Zm-11.666-35.914-32.355,18.678a24.562,24.562,0,0,0-11.383-6.514v-37.5a61.508,61.508,0,0,1,43.738,25.333Zm-49.894,48.226a12.312,12.312,0,1,1,12.312-12.312A12.324,12.324,0,0,1,129.872,358.183Zm-6.156-73.559v37.5a24.563,24.563,0,0,0-11.383,6.514L79.978,309.958a61.508,61.508,0,0,1,43.738-25.333Zm-55.4,61.247A61.142,61.142,0,0,1,73.8,320.607L106.24,339.34a22,22,0,0,0,0,13.063L73.8,371.136a61.143,61.143,0,0,1-5.486-25.264Zm11.666,35.914,32.355-18.678a24.562,24.562,0,0,0,11.383,6.514v37.5a61.508,61.508,0,0,1-43.738-25.333Zm56.05,25.333v-37.5a24.563,24.563,0,0,0,11.383-6.514l32.355,18.678a61.508,61.508,0,0,1-43.738,25.333Zm0,0" transform="translate(-12.908 -62.697)" fill="#3e9cee"/>
    <path id="Path_70" data-name="Path 70" d="M295.486,310.238H251.454l-10.262-61.56H258.55a18.492,18.492,0,0,0,18.468-18.468V217.9a18.492,18.492,0,0,0-18.468-18.468H129.4l-18.678-93.4L103.71,64H24.624a24.624,24.624,0,0,0,0,49.248H62.669l18.6,92.98A98.436,98.436,0,1,0,206.712,338.292l.959,5.768a18.413,18.413,0,0,0,18.215,15.426h69.6a18.492,18.492,0,0,0,18.468-18.468V328.706a18.492,18.492,0,0,0-18.468-18.468ZM264.706,217.9v12.312a6.168,6.168,0,0,1-6.156,6.156H193.729a99.27,99.27,0,0,0-29.187-24.624H258.55A6.168,6.168,0,0,1,264.706,217.9ZM12.312,88.624A12.324,12.324,0,0,1,24.624,76.312H93.28l4.106,24.624H24.624A12.324,12.324,0,0,1,12.312,88.624Zm62.915,24.624H99.611l17.235,86.19a97.953,97.953,0,0,0-23.767,3.048ZM116.963,384.11a86.183,86.183,0,1,1,86.183-86.183A86.276,86.276,0,0,1,116.963,384.11Zm184.679-43.092a6.168,6.168,0,0,1-6.156,6.156h-69.6a6.134,6.134,0,0,1-6.069-5.146l-5.257-31.519a95.747,95.747,0,0,0-12.429-61.83h26.581l12.312,73.871h54.463a6.168,6.168,0,0,1,6.156,6.156Zm0,0" transform="translate(0 -14.752)" fill="#3e9cee"/>
  </g>
</svg>
